<mxfile host="Electron" modified="2024-05-24T14:31:08.871Z" agent="Mozilla/5.0 (Macintosh; Intel Mac OS X 10_15_7) AppleWebKit/537.36 (KHTML, like Gecko) draw.io/24.4.7 Chrome/124.0.6367.207 Electron/30.0.6 Safari/537.36" etag="ENANeq9LJqXWnPEBks9Z" version="24.4.7" type="device">
  <diagram id="AAR1mRfeiqQyKMKh30_z" name="Page-1">
    <mxGraphModel dx="1975" dy="1180" grid="1" gridSize="10" guides="1" tooltips="1" connect="1" arrows="1" fold="1" page="1" pageScale="1" pageWidth="827" pageHeight="1169" math="0" shadow="0">
      <root>
        <mxCell id="0" />
        <mxCell id="1" parent="0" />
        <mxCell id="-ENlqUrfkdgG28yoSUpv-113" value="WEb Frontend" style="rounded=0;whiteSpace=wrap;html=1;verticalAlign=top;" vertex="1" parent="1">
          <mxGeometry x="1668" y="10" width="800" height="1950" as="geometry" />
        </mxCell>
        <mxCell id="FR89OB6KfwYHRrKmToQn-22" value="DATA MODEL" style="rounded=0;whiteSpace=wrap;html=1;verticalAlign=top;" parent="1" vertex="1">
          <mxGeometry x="10" y="10" width="800" height="1150" as="geometry" />
        </mxCell>
        <mxCell id="J9bktaArhZ66ByUuH0eX-114" style="edgeStyle=orthogonalEdgeStyle;rounded=0;orthogonalLoop=1;jettySize=auto;html=1;strokeColor=default;endArrow=none;endFill=0;startArrow=diamond;startFill=1;exitX=0.469;exitY=1.038;exitDx=0;exitDy=0;exitPerimeter=0;" parent="1" source="J9bktaArhZ66ByUuH0eX-95" target="J9bktaArhZ66ByUuH0eX-96" edge="1">
          <mxGeometry relative="1" as="geometry" />
        </mxCell>
        <mxCell id="J9bktaArhZ66ByUuH0eX-115" style="edgeStyle=orthogonalEdgeStyle;rounded=0;orthogonalLoop=1;jettySize=auto;html=1;endArrow=none;endFill=0;startArrow=diamond;startFill=1;entryX=0.5;entryY=0;entryDx=0;entryDy=0;" parent="1" source="J9bktaArhZ66ByUuH0eX-1" target="gQ0caooAG5JBceF9FNhk-10" edge="1">
          <mxGeometry relative="1" as="geometry">
            <Array as="points">
              <mxPoint x="300" y="307" />
              <mxPoint x="645" y="307" />
            </Array>
          </mxGeometry>
        </mxCell>
        <mxCell id="J9bktaArhZ66ByUuH0eX-1" value="Plenary" style="swimlane;fontStyle=0;childLayout=stackLayout;horizontal=1;startSize=26;fillColor=#dae8fc;horizontalStack=0;resizeParent=1;resizeParentMax=0;resizeLast=0;collapsible=1;marginBottom=0;whiteSpace=wrap;html=1;movable=1;resizable=1;rotatable=1;deletable=1;editable=1;locked=0;connectable=1;strokeColor=#6c8ebf;" parent="1" vertex="1">
          <mxGeometry x="40" y="40" width="310" height="246" as="geometry">
            <mxRectangle x="170" y="90" width="80" height="30" as="alternateBounds" />
          </mxGeometry>
        </mxCell>
        <mxCell id="J9bktaArhZ66ByUuH0eX-2" value="+ id: string" style="text;strokeColor=none;fillColor=none;align=left;verticalAlign=top;spacingLeft=4;spacingRight=4;overflow=hidden;rotatable=0;points=[[0,0.5],[1,0.5]];portConstraint=eastwest;whiteSpace=wrap;html=1;" parent="J9bktaArhZ66ByUuH0eX-1" vertex="1">
          <mxGeometry y="26" width="310" height="26" as="geometry" />
        </mxCell>
        <mxCell id="J9bktaArhZ66ByUuH0eX-3" value="+ number: int" style="text;strokeColor=none;fillColor=none;align=left;verticalAlign=top;spacingLeft=4;spacingRight=4;overflow=hidden;rotatable=0;points=[[0,0.5],[1,0.5]];portConstraint=eastwest;whiteSpace=wrap;html=1;" parent="J9bktaArhZ66ByUuH0eX-1" vertex="1">
          <mxGeometry y="52" width="310" height="26" as="geometry" />
        </mxCell>
        <mxCell id="J9bktaArhZ66ByUuH0eX-4" value="+ legislature: int" style="text;strokeColor=none;fillColor=none;align=left;verticalAlign=top;spacingLeft=4;spacingRight=4;overflow=hidden;rotatable=0;points=[[0,0.5],[1,0.5]];portConstraint=eastwest;whiteSpace=wrap;html=1;" parent="J9bktaArhZ66ByUuH0eX-1" vertex="1">
          <mxGeometry y="78" width="310" height="32" as="geometry" />
        </mxCell>
        <mxCell id="tHdkYAUki8lSc-bP6wRB-1" value="+ date: String" style="text;strokeColor=none;fillColor=none;align=left;verticalAlign=top;spacingLeft=4;spacingRight=4;overflow=hidden;rotatable=0;points=[[0,0.5],[1,0.5]];portConstraint=eastwest;whiteSpace=wrap;html=1;" parent="J9bktaArhZ66ByUuH0eX-1" vertex="1">
          <mxGeometry y="110" width="310" height="32" as="geometry" />
        </mxCell>
        <mxCell id="J9bktaArhZ66ByUuH0eX-92" value="+ pdfReport: url" style="text;strokeColor=none;fillColor=none;align=left;verticalAlign=top;spacingLeft=4;spacingRight=4;overflow=hidden;rotatable=0;points=[[0,0.5],[1,0.5]];portConstraint=eastwest;whiteSpace=wrap;html=1;" parent="J9bktaArhZ66ByUuH0eX-1" vertex="1">
          <mxGeometry y="142" width="310" height="26" as="geometry" />
        </mxCell>
        <mxCell id="J9bktaArhZ66ByUuH0eX-94" value="+ htmlReport: url" style="text;strokeColor=none;fillColor=none;align=left;verticalAlign=top;spacingLeft=4;spacingRight=4;overflow=hidden;rotatable=0;points=[[0,0.5],[1,0.5]];portConstraint=eastwest;whiteSpace=wrap;html=1;" parent="J9bktaArhZ66ByUuH0eX-1" vertex="1">
          <mxGeometry y="168" width="310" height="26" as="geometry" />
        </mxCell>
        <mxCell id="J9bktaArhZ66ByUuH0eX-93" value="+ proposalDiscussions: List&amp;lt;ProposalDiscussion&amp;gt;" style="text;strokeColor=none;fillColor=none;align=left;verticalAlign=top;spacingLeft=4;spacingRight=4;overflow=hidden;rotatable=0;points=[[0,0.5],[1,0.5]];portConstraint=eastwest;whiteSpace=wrap;html=1;" parent="J9bktaArhZ66ByUuH0eX-1" vertex="1">
          <mxGeometry y="194" width="310" height="26" as="geometry" />
        </mxCell>
        <mxCell id="J9bktaArhZ66ByUuH0eX-95" value="+ motionGroups: List&amp;lt;MotionGroup&amp;gt;" style="text;strokeColor=none;fillColor=none;align=left;verticalAlign=top;spacingLeft=4;spacingRight=4;overflow=hidden;rotatable=0;points=[[0,0.5],[1,0.5]];portConstraint=eastwest;whiteSpace=wrap;html=1;" parent="J9bktaArhZ66ByUuH0eX-1" vertex="1">
          <mxGeometry y="220" width="310" height="26" as="geometry" />
        </mxCell>
        <mxCell id="J9bktaArhZ66ByUuH0eX-96" value="ProposalDiscussion" style="swimlane;fontStyle=0;childLayout=stackLayout;horizontal=1;startSize=26;fillColor=#dae8fc;horizontalStack=0;resizeParent=1;resizeParentMax=0;resizeLast=0;collapsible=1;marginBottom=0;whiteSpace=wrap;html=1;movable=1;resizable=1;rotatable=1;deletable=1;editable=1;locked=0;connectable=1;strokeColor=#6c8ebf;" parent="1" vertex="1">
          <mxGeometry x="30" y="360" width="220" height="240" as="geometry">
            <mxRectangle x="170" y="90" width="80" height="30" as="alternateBounds" />
          </mxGeometry>
        </mxCell>
        <mxCell id="J9bktaArhZ66ByUuH0eX-97" value="+ id: string" style="text;strokeColor=none;fillColor=none;align=left;verticalAlign=top;spacingLeft=4;spacingRight=4;overflow=hidden;rotatable=0;points=[[0,0.5],[1,0.5]];portConstraint=eastwest;whiteSpace=wrap;html=1;" parent="J9bktaArhZ66ByUuH0eX-96" vertex="1">
          <mxGeometry y="26" width="220" height="26" as="geometry" />
        </mxCell>
        <mxCell id="J9bktaArhZ66ByUuH0eX-99" value="+ plenary_id: string" style="text;strokeColor=#b85450;fillColor=#f8cecc;align=left;verticalAlign=top;spacingLeft=4;spacingRight=4;overflow=hidden;rotatable=0;points=[[0,0.5],[1,0.5]];portConstraint=eastwest;whiteSpace=wrap;html=1;" parent="J9bktaArhZ66ByUuH0eX-96" vertex="1">
          <mxGeometry y="52" width="220" height="32" as="geometry" />
        </mxCell>
        <mxCell id="J9bktaArhZ66ByUuH0eX-98" value="+ agenda_item_nr: int" style="text;strokeColor=none;fillColor=none;align=left;verticalAlign=top;spacingLeft=4;spacingRight=4;overflow=hidden;rotatable=0;points=[[0,0.5],[1,0.5]];portConstraint=eastwest;whiteSpace=wrap;html=1;" parent="J9bktaArhZ66ByUuH0eX-96" vertex="1">
          <mxGeometry y="84" width="220" height="26" as="geometry" />
        </mxCell>
        <mxCell id="J9bktaArhZ66ByUuH0eX-100" value="+ descriptionNL: string" style="text;strokeColor=none;fillColor=none;align=left;verticalAlign=top;spacingLeft=4;spacingRight=4;overflow=hidden;rotatable=0;points=[[0,0.5],[1,0.5]];portConstraint=eastwest;whiteSpace=wrap;html=1;" parent="J9bktaArhZ66ByUuH0eX-96" vertex="1">
          <mxGeometry y="110" width="220" height="26" as="geometry" />
        </mxCell>
        <mxCell id="Tzb_xMdkpysdnAu4gksW-1" value="+ descriptionNLTags: List&amp;lt;String&amp;gt;" style="text;strokeColor=none;fillColor=none;align=left;verticalAlign=top;spacingLeft=4;spacingRight=4;overflow=hidden;rotatable=0;points=[[0,0.5],[1,0.5]];portConstraint=eastwest;whiteSpace=wrap;html=1;" parent="J9bktaArhZ66ByUuH0eX-96" vertex="1">
          <mxGeometry y="136" width="220" height="26" as="geometry" />
        </mxCell>
        <mxCell id="gQ0caooAG5JBceF9FNhk-6" value="+ descriptionFR: string" style="text;strokeColor=none;fillColor=none;align=left;verticalAlign=top;spacingLeft=4;spacingRight=4;overflow=hidden;rotatable=0;points=[[0,0.5],[1,0.5]];portConstraint=eastwest;whiteSpace=wrap;html=1;" parent="J9bktaArhZ66ByUuH0eX-96" vertex="1">
          <mxGeometry y="162" width="220" height="26" as="geometry" />
        </mxCell>
        <mxCell id="Tzb_xMdkpysdnAu4gksW-2" value="+ descriptionFRTags: List&amp;lt;String&amp;gt;" style="text;strokeColor=none;fillColor=none;align=left;verticalAlign=top;spacingLeft=4;spacingRight=4;overflow=hidden;rotatable=0;points=[[0,0.5],[1,0.5]];portConstraint=eastwest;whiteSpace=wrap;html=1;" parent="J9bktaArhZ66ByUuH0eX-96" vertex="1">
          <mxGeometry y="188" width="220" height="26" as="geometry" />
        </mxCell>
        <mxCell id="gQ0caooAG5JBceF9FNhk-7" value="+ proposals: List&amp;lt;Proposal&amp;gt;" style="text;strokeColor=none;fillColor=none;align=left;verticalAlign=top;spacingLeft=4;spacingRight=4;overflow=hidden;rotatable=0;points=[[0,0.5],[1,0.5]];portConstraint=eastwest;whiteSpace=wrap;html=1;" parent="J9bktaArhZ66ByUuH0eX-96" vertex="1">
          <mxGeometry y="214" width="220" height="26" as="geometry" />
        </mxCell>
        <mxCell id="gQ0caooAG5JBceF9FNhk-18" style="edgeStyle=orthogonalEdgeStyle;rounded=0;orthogonalLoop=1;jettySize=auto;html=1;endArrow=diamond;endFill=1;" parent="1" source="J9bktaArhZ66ByUuH0eX-104" target="gQ0caooAG5JBceF9FNhk-16" edge="1">
          <mxGeometry relative="1" as="geometry">
            <Array as="points">
              <mxPoint x="650" y="610" />
              <mxPoint x="650" y="610" />
            </Array>
          </mxGeometry>
        </mxCell>
        <mxCell id="J9bktaArhZ66ByUuH0eX-104" value="Motion" style="swimlane;fontStyle=0;childLayout=stackLayout;horizontal=1;startSize=26;fillColor=#dae8fc;horizontalStack=0;resizeParent=1;resizeParentMax=0;resizeLast=0;collapsible=1;marginBottom=0;whiteSpace=wrap;html=1;movable=1;resizable=1;rotatable=1;deletable=1;editable=1;locked=0;connectable=1;strokeColor=#6c8ebf;" parent="1" vertex="1">
          <mxGeometry x="575" y="630" width="205" height="290" as="geometry">
            <mxRectangle x="170" y="90" width="80" height="30" as="alternateBounds" />
          </mxGeometry>
        </mxCell>
        <mxCell id="J9bktaArhZ66ByUuH0eX-105" value="+ id: string" style="text;strokeColor=none;fillColor=none;align=left;verticalAlign=top;spacingLeft=4;spacingRight=4;overflow=hidden;rotatable=0;points=[[0,0.5],[1,0.5]];portConstraint=eastwest;whiteSpace=wrap;html=1;" parent="J9bktaArhZ66ByUuH0eX-104" vertex="1">
          <mxGeometry y="26" width="205" height="26" as="geometry" />
        </mxCell>
        <mxCell id="J9bktaArhZ66ByUuH0eX-106" value="+ sequenceNumber: int" style="text;strokeColor=none;fillColor=none;align=left;verticalAlign=top;spacingLeft=4;spacingRight=4;overflow=hidden;rotatable=0;points=[[0,0.5],[1,0.5]];portConstraint=eastwest;whiteSpace=wrap;html=1;" parent="J9bktaArhZ66ByUuH0eX-104" vertex="1">
          <mxGeometry y="52" width="205" height="26" as="geometry" />
        </mxCell>
        <mxCell id="gQ0caooAG5JBceF9FNhk-21" value="+ titleFR: string" style="text;strokeColor=none;fillColor=none;align=left;verticalAlign=top;spacingLeft=4;spacingRight=4;overflow=hidden;rotatable=0;points=[[0,0.5],[1,0.5]];portConstraint=eastwest;whiteSpace=wrap;html=1;" parent="J9bktaArhZ66ByUuH0eX-104" vertex="1">
          <mxGeometry y="78" width="205" height="32" as="geometry" />
        </mxCell>
        <mxCell id="gQ0caooAG5JBceF9FNhk-20" value="+ titleNL: string" style="text;strokeColor=none;fillColor=none;align=left;verticalAlign=top;spacingLeft=4;spacingRight=4;overflow=hidden;rotatable=0;points=[[0,0.5],[1,0.5]];portConstraint=eastwest;whiteSpace=wrap;html=1;" parent="J9bktaArhZ66ByUuH0eX-104" vertex="1">
          <mxGeometry y="110" width="205" height="32" as="geometry" />
        </mxCell>
        <mxCell id="gQ0caooAG5JBceF9FNhk-23" value="+ description: string" style="text;strokeColor=none;fillColor=none;align=left;verticalAlign=top;spacingLeft=4;spacingRight=4;overflow=hidden;rotatable=0;points=[[0,0.5],[1,0.5]];portConstraint=eastwest;whiteSpace=wrap;html=1;" parent="J9bktaArhZ66ByUuH0eX-104" vertex="1">
          <mxGeometry y="142" width="205" height="32" as="geometry" />
        </mxCell>
        <mxCell id="gQ0caooAG5JBceF9FNhk-22" value="+ documentsReference: string" style="text;strokeColor=none;fillColor=none;align=left;verticalAlign=top;spacingLeft=4;spacingRight=4;overflow=hidden;rotatable=0;points=[[0,0.5],[1,0.5]];portConstraint=eastwest;whiteSpace=wrap;html=1;" parent="J9bktaArhZ66ByUuH0eX-104" vertex="1">
          <mxGeometry y="174" width="205" height="26" as="geometry" />
        </mxCell>
        <mxCell id="J9bktaArhZ66ByUuH0eX-107" value="+ proposal_id: string" style="text;strokeColor=none;fillColor=none;align=left;verticalAlign=top;spacingLeft=4;spacingRight=4;overflow=hidden;rotatable=0;points=[[0,0.5],[1,0.5]];portConstraint=eastwest;whiteSpace=wrap;html=1;" parent="J9bktaArhZ66ByUuH0eX-104" vertex="1">
          <mxGeometry y="200" width="205" height="32" as="geometry" />
        </mxCell>
        <mxCell id="J9bktaArhZ66ByUuH0eX-111" value="+ cancelled: boolean" style="text;strokeColor=none;fillColor=none;align=left;verticalAlign=top;spacingLeft=4;spacingRight=4;overflow=hidden;rotatable=0;points=[[0,0.5],[1,0.5]];portConstraint=eastwest;whiteSpace=wrap;html=1;" parent="J9bktaArhZ66ByUuH0eX-104" vertex="1">
          <mxGeometry y="232" width="205" height="26" as="geometry" />
        </mxCell>
        <mxCell id="gQ0caooAG5JBceF9FNhk-24" value="+ votingId: string" style="text;strokeColor=none;fillColor=none;align=left;verticalAlign=top;spacingLeft=4;spacingRight=4;overflow=hidden;rotatable=0;points=[[0,0.5],[1,0.5]];portConstraint=eastwest;whiteSpace=wrap;html=1;" parent="J9bktaArhZ66ByUuH0eX-104" vertex="1">
          <mxGeometry y="258" width="205" height="32" as="geometry" />
        </mxCell>
        <mxCell id="J9bktaArhZ66ByUuH0eX-113" style="edgeStyle=orthogonalEdgeStyle;rounded=0;orthogonalLoop=1;jettySize=auto;html=1;entryX=1;entryY=0.5;entryDx=0;entryDy=0;exitX=0;exitY=0.5;exitDx=0;exitDy=0;" parent="1" source="gQ0caooAG5JBceF9FNhk-15" target="J9bktaArhZ66ByUuH0eX-97" edge="1">
          <mxGeometry relative="1" as="geometry" />
        </mxCell>
        <mxCell id="J9bktaArhZ66ByUuH0eX-121" value="Politician" style="swimlane;fontStyle=0;childLayout=stackLayout;horizontal=1;startSize=26;fillColor=#d5e8d4;horizontalStack=0;resizeParent=1;resizeParentMax=0;resizeLast=0;collapsible=1;marginBottom=0;whiteSpace=wrap;html=1;movable=1;resizable=1;rotatable=1;deletable=1;editable=1;locked=0;connectable=1;strokeColor=#82b366;" parent="1" vertex="1">
          <mxGeometry x="26.96" y="1033" width="140" height="110" as="geometry">
            <mxRectangle x="170" y="90" width="80" height="30" as="alternateBounds" />
          </mxGeometry>
        </mxCell>
        <mxCell id="J9bktaArhZ66ByUuH0eX-122" value="+ id: string" style="text;strokeColor=none;fillColor=none;align=left;verticalAlign=top;spacingLeft=4;spacingRight=4;overflow=hidden;rotatable=0;points=[[0,0.5],[1,0.5]];portConstraint=eastwest;whiteSpace=wrap;html=1;" parent="J9bktaArhZ66ByUuH0eX-121" vertex="1">
          <mxGeometry y="26" width="140" height="26" as="geometry" />
        </mxCell>
        <mxCell id="J9bktaArhZ66ByUuH0eX-124" value="+ full_name: string" style="text;strokeColor=none;fillColor=none;align=left;verticalAlign=top;spacingLeft=4;spacingRight=4;overflow=hidden;rotatable=0;points=[[0,0.5],[1,0.5]];portConstraint=eastwest;whiteSpace=wrap;html=1;" parent="J9bktaArhZ66ByUuH0eX-121" vertex="1">
          <mxGeometry y="52" width="140" height="32" as="geometry" />
        </mxCell>
        <mxCell id="J9bktaArhZ66ByUuH0eX-125" value="+ fraction: string" style="text;strokeColor=none;fillColor=none;align=left;verticalAlign=top;spacingLeft=4;spacingRight=4;overflow=hidden;rotatable=0;points=[[0,0.5],[1,0.5]];portConstraint=eastwest;whiteSpace=wrap;html=1;" parent="J9bktaArhZ66ByUuH0eX-121" vertex="1">
          <mxGeometry y="84" width="140" height="26" as="geometry" />
        </mxCell>
        <mxCell id="J9bktaArhZ66ByUuH0eX-126" value="Vote" style="swimlane;fontStyle=0;childLayout=stackLayout;horizontal=1;startSize=26;fillColor=#d5e8d4;horizontalStack=0;resizeParent=1;resizeParentMax=0;resizeLast=0;collapsible=1;marginBottom=0;whiteSpace=wrap;html=1;movable=1;resizable=1;rotatable=1;deletable=1;editable=1;locked=0;connectable=1;strokeColor=#82b366;" parent="1" vertex="1">
          <mxGeometry x="326.96" y="1033" width="140" height="110" as="geometry">
            <mxRectangle x="170" y="90" width="80" height="30" as="alternateBounds" />
          </mxGeometry>
        </mxCell>
        <mxCell id="J9bktaArhZ66ByUuH0eX-127" value="+ votingId: string" style="text;strokeColor=none;fillColor=none;align=left;verticalAlign=top;spacingLeft=4;spacingRight=4;overflow=hidden;rotatable=0;points=[[0,0.5],[1,0.5]];portConstraint=eastwest;whiteSpace=wrap;html=1;" parent="J9bktaArhZ66ByUuH0eX-126" vertex="1">
          <mxGeometry y="26" width="140" height="26" as="geometry" />
        </mxCell>
        <mxCell id="J9bktaArhZ66ByUuH0eX-128" value="+ vote_type: VoteType" style="text;strokeColor=none;fillColor=none;align=left;verticalAlign=top;spacingLeft=4;spacingRight=4;overflow=hidden;rotatable=0;points=[[0,0.5],[1,0.5]];portConstraint=eastwest;whiteSpace=wrap;html=1;" parent="J9bktaArhZ66ByUuH0eX-126" vertex="1">
          <mxGeometry y="52" width="140" height="32" as="geometry" />
        </mxCell>
        <mxCell id="J9bktaArhZ66ByUuH0eX-132" value="+ politician: Politician" style="text;strokeColor=none;fillColor=none;align=left;verticalAlign=top;spacingLeft=4;spacingRight=4;overflow=hidden;rotatable=0;points=[[0,0.5],[1,0.5]];portConstraint=eastwest;whiteSpace=wrap;html=1;" parent="J9bktaArhZ66ByUuH0eX-126" vertex="1">
          <mxGeometry y="84" width="140" height="26" as="geometry" />
        </mxCell>
        <mxCell id="J9bktaArhZ66ByUuH0eX-133" style="edgeStyle=orthogonalEdgeStyle;rounded=0;orthogonalLoop=1;jettySize=auto;html=1;" parent="1" source="J9bktaArhZ66ByUuH0eX-132" target="J9bktaArhZ66ByUuH0eX-122" edge="1">
          <mxGeometry relative="1" as="geometry" />
        </mxCell>
        <mxCell id="J9bktaArhZ66ByUuH0eX-135" value="VoteType" style="swimlane;fontStyle=0;childLayout=stackLayout;horizontal=1;startSize=26;fillColor=#d5e8d4;horizontalStack=0;resizeParent=1;resizeParentMax=0;resizeLast=0;collapsible=1;marginBottom=0;whiteSpace=wrap;html=1;movable=1;resizable=1;rotatable=1;deletable=1;editable=1;locked=0;connectable=1;strokeColor=#82b366;" parent="1" vertex="1">
          <mxGeometry x="575" y="1033" width="140" height="110" as="geometry">
            <mxRectangle x="170" y="90" width="80" height="30" as="alternateBounds" />
          </mxGeometry>
        </mxCell>
        <mxCell id="J9bktaArhZ66ByUuH0eX-136" value="+ YES" style="text;strokeColor=none;fillColor=none;align=left;verticalAlign=top;spacingLeft=4;spacingRight=4;overflow=hidden;rotatable=0;points=[[0,0.5],[1,0.5]];portConstraint=eastwest;whiteSpace=wrap;html=1;" parent="J9bktaArhZ66ByUuH0eX-135" vertex="1">
          <mxGeometry y="26" width="140" height="26" as="geometry" />
        </mxCell>
        <mxCell id="J9bktaArhZ66ByUuH0eX-137" value="+ NO" style="text;strokeColor=none;fillColor=none;align=left;verticalAlign=top;spacingLeft=4;spacingRight=4;overflow=hidden;rotatable=0;points=[[0,0.5],[1,0.5]];portConstraint=eastwest;whiteSpace=wrap;html=1;" parent="J9bktaArhZ66ByUuH0eX-135" vertex="1">
          <mxGeometry y="52" width="140" height="32" as="geometry" />
        </mxCell>
        <mxCell id="J9bktaArhZ66ByUuH0eX-138" value="+ ABSTENTION&lt;span style=&quot;color: rgba(0, 0, 0, 0); font-family: monospace; font-size: 0px; text-wrap: nowrap;&quot;&gt;%3CmxGraphModel%3E%3Croot%3E%3CmxCell%20id%3D%220%22%2F%3E%3CmxCell%20id%3D%221%22%20parent%3D%220%22%2F%3E%3CmxCell%20id%3D%222%22%20value%3D%22Vote%22%20style%3D%22swimlane%3BfontStyle%3D0%3BchildLayout%3DstackLayout%3Bhorizontal%3D1%3BstartSize%3D26%3BfillColor%3D%23d5e8d4%3BhorizontalStack%3D0%3BresizeParent%3D1%3BresizeParentMax%3D0%3BresizeLast%3D0%3Bcollapsible%3D1%3BmarginBottom%3D0%3BwhiteSpace%3Dwrap%3Bhtml%3D1%3Bmovable%3D1%3Bresizable%3D1%3Brotatable%3D1%3Bdeletable%3D1%3Beditable%3D1%3Blocked%3D0%3Bconnectable%3D1%3BstrokeColor%3D%2382b366%3B%22%20vertex%3D%221%22%20parent%3D%221%22%3E%3CmxGeometry%20x%3D%22360%22%20y%3D%22600%22%20width%3D%22140%22%20height%3D%22136%22%20as%3D%22geometry%22%3E%3CmxRectangle%20x%3D%22170%22%20y%3D%2290%22%20width%3D%2280%22%20height%3D%2230%22%20as%3D%22alternateBounds%22%2F%3E%3C%2FmxGeometry%3E%3C%2FmxCell%3E%3CmxCell%20id%3D%223%22%20value%3D%22%2B%20motion_id%3A%20string%22%20style%3D%22text%3BstrokeColor%3Dnone%3BfillColor%3Dnone%3Balign%3Dleft%3BverticalAlign%3Dtop%3BspacingLeft%3D4%3BspacingRight%3D4%3Boverflow%3Dhidden%3Brotatable%3D0%3Bpoints%3D%5B%5B0%2C0.5%5D%2C%5B1%2C0.5%5D%5D%3BportConstraint%3Deastwest%3BwhiteSpace%3Dwrap%3Bhtml%3D1%3B%22%20vertex%3D%221%22%20parent%3D%222%22%3E%3CmxGeometry%20y%3D%2226%22%20width%3D%22140%22%20height%3D%2226%22%20as%3D%22geometry%22%2F%3E%3C%2FmxCell%3E%3CmxCell%20id%3D%224%22%20value%3D%22%2B%20vote_type%3A%20boolean%22%20style%3D%22text%3BstrokeColor%3Dnone%3BfillColor%3Dnone%3Balign%3Dleft%3BverticalAlign%3Dtop%3BspacingLeft%3D4%3BspacingRight%3D4%3Boverflow%3Dhidden%3Brotatable%3D0%3Bpoints%3D%5B%5B0%2C0.5%5D%2C%5B1%2C0.5%5D%5D%3BportConstraint%3Deastwest%3BwhiteSpace%3Dwrap%3Bhtml%3D1%3B%22%20vertex%3D%221%22%20parent%3D%222%22%3E%3CmxGeometry%20y%3D%2252%22%20width%3D%22140%22%20height%3D%2232%22%20as%3D%22geometry%22%2F%3E%3C%2FmxCell%3E%3CmxCell%20id%3D%225%22%20value%3D%22%2B%20fraction%3A%20string%22%20style%3D%22text%3BstrokeColor%3Dnone%3BfillColor%3Dnone%3Balign%3Dleft%3BverticalAlign%3Dtop%3BspacingLeft%3D4%3BspacingRight%3D4%3Boverflow%3Dhidden%3Brotatable%3D0%3Bpoints%3D%5B%5B0%2C0.5%5D%2C%5B1%2C0.5%5D%5D%3BportConstraint%3Deastwest%3BwhiteSpace%3Dwrap%3Bhtml%3D1%3B%22%20vertex%3D%221%22%20parent%3D%222%22%3E%3CmxGeometry%20y%3D%2284%22%20width%3D%22140%22%20height%3D%2226%22%20as%3D%22geometry%22%2F%3E%3C%2FmxCell%3E%3CmxCell%20id%3D%226%22%20value%3D%22%2B%20politician%3A%20Politician%22%20style%3D%22text%3BstrokeColor%3Dnone%3BfillColor%3Dnone%3Balign%3Dleft%3BverticalAlign%3Dtop%3BspacingLeft%3D4%3BspacingRight%3D4%3Boverflow%3Dhidden%3Brotatable%3D0%3Bpoints%3D%5B%5B0%2C0.5%5D%2C%5B1%2C0.5%5D%5D%3BportConstraint%3Deastwest%3BwhiteSpace%3Dwrap%3Bhtml%3D1%3B%22%20vertex%3D%221%22%20parent%3D%222%22%3E%3CmxGeometry%20y%3D%22110%22%20width%3D%22140%22%20height%3D%2226%22%20as%3D%22geometry%22%2F%3E%3C%2FmxCell%3E%3C%2Froot%3E%3C%2FmxGraphModel%3E&lt;/span&gt;" style="text;strokeColor=none;fillColor=none;align=left;verticalAlign=top;spacingLeft=4;spacingRight=4;overflow=hidden;rotatable=0;points=[[0,0.5],[1,0.5]];portConstraint=eastwest;whiteSpace=wrap;html=1;" parent="J9bktaArhZ66ByUuH0eX-135" vertex="1">
          <mxGeometry y="84" width="140" height="26" as="geometry" />
        </mxCell>
        <mxCell id="J9bktaArhZ66ByUuH0eX-140" style="edgeStyle=orthogonalEdgeStyle;rounded=0;orthogonalLoop=1;jettySize=auto;html=1;entryX=0;entryY=0.5;entryDx=0;entryDy=0;" parent="1" source="J9bktaArhZ66ByUuH0eX-128" target="J9bktaArhZ66ByUuH0eX-137" edge="1">
          <mxGeometry relative="1" as="geometry">
            <mxPoint x="616.96" y="1123" as="targetPoint" />
          </mxGeometry>
        </mxCell>
        <mxCell id="gQ0caooAG5JBceF9FNhk-9" style="edgeStyle=orthogonalEdgeStyle;rounded=0;orthogonalLoop=1;jettySize=auto;html=1;endArrow=diamond;endFill=1;entryX=0.446;entryY=1.075;entryDx=0;entryDy=0;entryPerimeter=0;" parent="1" source="gQ0caooAG5JBceF9FNhk-1" target="gQ0caooAG5JBceF9FNhk-7" edge="1">
          <mxGeometry relative="1" as="geometry">
            <Array as="points">
              <mxPoint x="128" y="660" />
              <mxPoint x="128" y="660" />
            </Array>
          </mxGeometry>
        </mxCell>
        <mxCell id="gQ0caooAG5JBceF9FNhk-1" value="Proposal" style="swimlane;fontStyle=0;childLayout=stackLayout;horizontal=1;startSize=26;fillColor=#dae8fc;horizontalStack=0;resizeParent=1;resizeParentMax=0;resizeLast=0;collapsible=1;marginBottom=0;whiteSpace=wrap;html=1;movable=1;resizable=1;rotatable=1;deletable=1;editable=1;locked=0;connectable=1;strokeColor=#6c8ebf;" parent="1" vertex="1">
          <mxGeometry x="26.96" y="710" width="230" height="130" as="geometry">
            <mxRectangle x="170" y="90" width="80" height="30" as="alternateBounds" />
          </mxGeometry>
        </mxCell>
        <mxCell id="gQ0caooAG5JBceF9FNhk-2" value="+ id: string" style="text;strokeColor=none;fillColor=none;align=left;verticalAlign=top;spacingLeft=4;spacingRight=4;overflow=hidden;rotatable=0;points=[[0,0.5],[1,0.5]];portConstraint=eastwest;whiteSpace=wrap;html=1;" parent="gQ0caooAG5JBceF9FNhk-1" vertex="1">
          <mxGeometry y="26" width="230" height="26" as="geometry" />
        </mxCell>
        <mxCell id="gQ0caooAG5JBceF9FNhk-3" value="+ documentReference: optional&amp;lt;String&amp;gt;" style="text;strokeColor=none;fillColor=none;align=left;verticalAlign=top;spacingLeft=4;spacingRight=4;overflow=hidden;rotatable=0;points=[[0,0.5],[1,0.5]];portConstraint=eastwest;whiteSpace=wrap;html=1;" parent="gQ0caooAG5JBceF9FNhk-1" vertex="1">
          <mxGeometry y="52" width="230" height="26" as="geometry" />
        </mxCell>
        <mxCell id="gQ0caooAG5JBceF9FNhk-5" value="+ titleNL: string" style="text;strokeColor=none;fillColor=none;align=left;verticalAlign=top;spacingLeft=4;spacingRight=4;overflow=hidden;rotatable=0;points=[[0,0.5],[1,0.5]];portConstraint=eastwest;whiteSpace=wrap;html=1;" parent="gQ0caooAG5JBceF9FNhk-1" vertex="1">
          <mxGeometry y="78" width="230" height="26" as="geometry" />
        </mxCell>
        <mxCell id="gQ0caooAG5JBceF9FNhk-8" value="+ titleFR: string" style="text;strokeColor=none;fillColor=none;align=left;verticalAlign=top;spacingLeft=4;spacingRight=4;overflow=hidden;rotatable=0;points=[[0,0.5],[1,0.5]];portConstraint=eastwest;whiteSpace=wrap;html=1;" parent="gQ0caooAG5JBceF9FNhk-1" vertex="1">
          <mxGeometry y="104" width="230" height="26" as="geometry" />
        </mxCell>
        <mxCell id="gQ0caooAG5JBceF9FNhk-10" value="MotionGroup" style="swimlane;fontStyle=0;childLayout=stackLayout;horizontal=1;startSize=26;fillColor=#dae8fc;horizontalStack=0;resizeParent=1;resizeParentMax=0;resizeLast=0;collapsible=1;marginBottom=0;whiteSpace=wrap;html=1;movable=1;resizable=1;rotatable=1;deletable=1;editable=1;locked=0;connectable=1;strokeColor=#6c8ebf;" parent="1" vertex="1">
          <mxGeometry x="550" y="360" width="190" height="220" as="geometry">
            <mxRectangle x="170" y="90" width="80" height="30" as="alternateBounds" />
          </mxGeometry>
        </mxCell>
        <mxCell id="gQ0caooAG5JBceF9FNhk-11" value="+ id: string" style="text;strokeColor=none;fillColor=none;align=left;verticalAlign=top;spacingLeft=4;spacingRight=4;overflow=hidden;rotatable=0;points=[[0,0.5],[1,0.5]];portConstraint=eastwest;whiteSpace=wrap;html=1;" parent="gQ0caooAG5JBceF9FNhk-10" vertex="1">
          <mxGeometry y="26" width="190" height="26" as="geometry" />
        </mxCell>
        <mxCell id="gQ0caooAG5JBceF9FNhk-12" value="+ titleNL: string" style="text;strokeColor=none;fillColor=none;align=left;verticalAlign=top;spacingLeft=4;spacingRight=4;overflow=hidden;rotatable=0;points=[[0,0.5],[1,0.5]];portConstraint=eastwest;whiteSpace=wrap;html=1;" parent="gQ0caooAG5JBceF9FNhk-10" vertex="1">
          <mxGeometry y="52" width="190" height="32" as="geometry" />
        </mxCell>
        <mxCell id="gQ0caooAG5JBceF9FNhk-17" value="+ titleFR: string" style="text;strokeColor=none;fillColor=none;align=left;verticalAlign=top;spacingLeft=4;spacingRight=4;overflow=hidden;rotatable=0;points=[[0,0.5],[1,0.5]];portConstraint=eastwest;whiteSpace=wrap;html=1;" parent="gQ0caooAG5JBceF9FNhk-10" vertex="1">
          <mxGeometry y="84" width="190" height="32" as="geometry" />
        </mxCell>
        <mxCell id="gQ0caooAG5JBceF9FNhk-13" value="+ agenda_item_nr: int" style="text;strokeColor=none;fillColor=none;align=left;verticalAlign=top;spacingLeft=4;spacingRight=4;overflow=hidden;rotatable=0;points=[[0,0.5],[1,0.5]];portConstraint=eastwest;whiteSpace=wrap;html=1;" parent="gQ0caooAG5JBceF9FNhk-10" vertex="1">
          <mxGeometry y="116" width="190" height="26" as="geometry" />
        </mxCell>
        <mxCell id="gQ0caooAG5JBceF9FNhk-14" value="+ documentsReference: string" style="text;strokeColor=none;fillColor=none;align=left;verticalAlign=top;spacingLeft=4;spacingRight=4;overflow=hidden;rotatable=0;points=[[0,0.5],[1,0.5]];portConstraint=eastwest;whiteSpace=wrap;html=1;" parent="gQ0caooAG5JBceF9FNhk-10" vertex="1">
          <mxGeometry y="142" width="190" height="26" as="geometry" />
        </mxCell>
        <mxCell id="gQ0caooAG5JBceF9FNhk-15" value="+ proposalDiscussion_Id: string" style="text;strokeColor=none;fillColor=none;align=left;verticalAlign=top;spacingLeft=4;spacingRight=4;overflow=hidden;rotatable=0;points=[[0,0.5],[1,0.5]];portConstraint=eastwest;whiteSpace=wrap;html=1;" parent="gQ0caooAG5JBceF9FNhk-10" vertex="1">
          <mxGeometry y="168" width="190" height="26" as="geometry" />
        </mxCell>
        <mxCell id="gQ0caooAG5JBceF9FNhk-16" value="+ motions: List&amp;lt;Motion&amp;gt;" style="text;strokeColor=none;fillColor=none;align=left;verticalAlign=top;spacingLeft=4;spacingRight=4;overflow=hidden;rotatable=0;points=[[0,0.5],[1,0.5]];portConstraint=eastwest;whiteSpace=wrap;html=1;" parent="gQ0caooAG5JBceF9FNhk-10" vertex="1">
          <mxGeometry y="194" width="190" height="26" as="geometry" />
        </mxCell>
        <mxCell id="gQ0caooAG5JBceF9FNhk-19" style="edgeStyle=orthogonalEdgeStyle;rounded=0;orthogonalLoop=1;jettySize=auto;html=1;" parent="1" source="J9bktaArhZ66ByUuH0eX-107" target="gQ0caooAG5JBceF9FNhk-2" edge="1">
          <mxGeometry relative="1" as="geometry" />
        </mxCell>
        <mxCell id="gQ0caooAG5JBceF9FNhk-25" style="edgeStyle=orthogonalEdgeStyle;rounded=0;orthogonalLoop=1;jettySize=auto;html=1;entryX=0;entryY=0.5;entryDx=0;entryDy=0;" parent="1" source="J9bktaArhZ66ByUuH0eX-127" target="gQ0caooAG5JBceF9FNhk-24" edge="1">
          <mxGeometry relative="1" as="geometry" />
        </mxCell>
        <mxCell id="tHdkYAUki8lSc-bP6wRB-3" value="" style="edgeStyle=orthogonalEdgeStyle;rounded=0;orthogonalLoop=1;jettySize=auto;html=1;exitX=0;exitY=0.5;exitDx=0;exitDy=0;entryX=0;entryY=0.5;entryDx=0;entryDy=0;" parent="1" source="J9bktaArhZ66ByUuH0eX-99" target="J9bktaArhZ66ByUuH0eX-2" edge="1">
          <mxGeometry relative="1" as="geometry">
            <Array as="points">
              <mxPoint x="10" y="428" />
              <mxPoint x="10" y="79" />
            </Array>
            <mxPoint x="30" y="428" as="sourcePoint" />
            <mxPoint x="-20" y="320" as="targetPoint" />
          </mxGeometry>
        </mxCell>
        <mxCell id="FR89OB6KfwYHRrKmToQn-2" value="" style="rounded=0;whiteSpace=wrap;html=1;" parent="1" vertex="1">
          <mxGeometry x="1720" y="175" width="520" height="590" as="geometry" />
        </mxCell>
        <mxCell id="FR89OB6KfwYHRrKmToQn-3" value="&lt;font style=&quot;font-size: 16px;&quot;&gt;&lt;u&gt;MOTIONS&lt;/u&gt;&lt;/font&gt;" style="text;html=1;align=center;verticalAlign=middle;whiteSpace=wrap;rounded=0;" parent="1" vertex="1">
          <mxGeometry x="1930" y="195" width="60" height="30" as="geometry" />
        </mxCell>
        <mxCell id="FR89OB6KfwYHRrKmToQn-7" value="" style="group;fillColor=#e3c800;fontColor=#000000;strokeColor=#B09500;" parent="1" vertex="1" connectable="0">
          <mxGeometry x="1750" y="235" width="460" height="60" as="geometry" />
        </mxCell>
        <mxCell id="FR89OB6KfwYHRrKmToQn-4" value="Titel of the Motion" style="rounded=0;whiteSpace=wrap;html=1;fillColor=#e3c800;fontColor=#000000;strokeColor=#B09500;" parent="FR89OB6KfwYHRrKmToQn-7" vertex="1">
          <mxGeometry x="40" width="280" height="60" as="geometry" />
        </mxCell>
        <mxCell id="FR89OB6KfwYHRrKmToQn-5" value="Accepted/Rejected&lt;div&gt;&lt;br&gt;&lt;/div&gt;&lt;div&gt;Date vote&lt;/div&gt;" style="rounded=0;whiteSpace=wrap;html=1;fillColor=#76608a;fontColor=#ffffff;strokeColor=#432D57;" parent="FR89OB6KfwYHRrKmToQn-7" vertex="1">
          <mxGeometry x="320" width="140" height="60" as="geometry" />
        </mxCell>
        <mxCell id="FR89OB6KfwYHRrKmToQn-6" value="&amp;gt;" style="rounded=0;whiteSpace=wrap;html=1;fillColor=#d0cee2;strokeColor=#56517e;" parent="FR89OB6KfwYHRrKmToQn-7" vertex="1">
          <mxGeometry width="40" height="60" as="geometry" />
        </mxCell>
        <mxCell id="FR89OB6KfwYHRrKmToQn-8" value="" style="group;fillColor=#e3c800;fontColor=#000000;strokeColor=#B09500;" parent="1" vertex="1" connectable="0">
          <mxGeometry x="1750" y="325" width="460" height="60" as="geometry" />
        </mxCell>
        <mxCell id="FR89OB6KfwYHRrKmToQn-9" value="Titel of the Motion" style="rounded=0;whiteSpace=wrap;html=1;fillColor=#e3c800;fontColor=#000000;strokeColor=#B09500;" parent="FR89OB6KfwYHRrKmToQn-8" vertex="1">
          <mxGeometry x="40" width="280" height="60" as="geometry" />
        </mxCell>
        <mxCell id="FR89OB6KfwYHRrKmToQn-10" value="Accepted/Rejected&lt;div&gt;&lt;br&gt;&lt;/div&gt;&lt;div&gt;Date vote&lt;/div&gt;" style="rounded=0;whiteSpace=wrap;html=1;fillColor=#76608a;fontColor=#ffffff;strokeColor=#432D57;" parent="FR89OB6KfwYHRrKmToQn-8" vertex="1">
          <mxGeometry x="320" width="140" height="60" as="geometry" />
        </mxCell>
        <mxCell id="FR89OB6KfwYHRrKmToQn-11" value="V" style="rounded=0;whiteSpace=wrap;html=1;fillColor=#d0cee2;strokeColor=#56517e;" parent="FR89OB6KfwYHRrKmToQn-8" vertex="1">
          <mxGeometry width="40" height="60" as="geometry" />
        </mxCell>
        <mxCell id="FR89OB6KfwYHRrKmToQn-12" value="Description of the Motion&amp;nbsp;&lt;span style=&quot;text-align: center;&quot;&gt;Blablablablablablablabla&lt;/span&gt;&lt;span style=&quot;text-align: center;&quot;&gt;Blablablablablablablabla&amp;nbsp;&lt;/span&gt;&lt;div&gt;&lt;span style=&quot;text-align: center;&quot;&gt;Blablablablablablablabla&lt;/span&gt;&lt;span style=&quot;text-align: center;&quot;&gt;Blablablablablablablabla&lt;/span&gt;&lt;span style=&quot;text-align: center;&quot;&gt;Blablablablablablablabla&lt;/span&gt;&lt;span style=&quot;text-align: center;&quot;&gt;Blablabla&amp;nbsp;&lt;/span&gt;&lt;/div&gt;&lt;div&gt;&lt;span style=&quot;text-align: center;&quot;&gt;blablablablabla&lt;/span&gt;&lt;span style=&quot;text-align: center;&quot;&gt;Blablablablablablablabla&lt;/span&gt;&lt;span style=&quot;text-align: center;&quot;&gt;Blablablablablablablabla&lt;/span&gt;&lt;span style=&quot;text-align: center;&quot;&gt;Blablablablablabla&lt;/span&gt;&lt;/div&gt;&lt;div&gt;&lt;span style=&quot;text-align: center;&quot;&gt;blabla&lt;/span&gt;&lt;span style=&quot;text-align: center;&quot;&gt;Blablablablablablablabla&lt;/span&gt;&lt;span style=&quot;text-align: center;&quot;&gt;Blablablablablablablabla&lt;/span&gt;&lt;span style=&quot;text-align: center;&quot;&gt;Blablablablablablablabla&lt;/span&gt;&lt;/div&gt;&lt;div&gt;&lt;span style=&quot;text-align: center;&quot;&gt;Blablablablablablablabla&lt;/span&gt;&lt;span style=&quot;text-align: center;&quot;&gt;Blablablablablablablabla&lt;/span&gt;&lt;span style=&quot;text-align: center;&quot;&gt;Blablablablablablablabla&lt;/span&gt;&lt;/div&gt;&lt;div&gt;&lt;span style=&quot;text-align: center;&quot;&gt;Blablablablablablablabla&lt;/span&gt;&lt;span style=&quot;text-align: center;&quot;&gt;Blablablablablablablabla&lt;/span&gt;&lt;span style=&quot;background-color: initial;&quot;&gt;Blablablablablablablabla&lt;/span&gt;&lt;div&gt;Blablablablablablablabla&lt;span style=&quot;background-color: initial;&quot;&gt;Blablablablablablablabla&lt;/span&gt;&lt;span style=&quot;background-color: initial;&quot;&gt;Blablablablablablablabla&lt;/span&gt;&lt;/div&gt;&lt;div&gt;&lt;span style=&quot;background-color: initial;&quot;&gt;Blablablablablablablabla&lt;/span&gt;&lt;span style=&quot;background-color: initial;&quot;&gt;Blablablablablablablabla&lt;/span&gt;&lt;/div&gt;&lt;/div&gt;" style="rounded=0;html=1;align=left;verticalAlign=top;" parent="1" vertex="1">
          <mxGeometry x="1750" y="385" width="460" height="140" as="geometry" />
        </mxCell>
        <mxCell id="FR89OB6KfwYHRrKmToQn-14" value="" style="group;fillColor=#e3c800;fontColor=#000000;strokeColor=#B09500;" parent="1" vertex="1" connectable="0">
          <mxGeometry x="1750" y="675" width="460" height="60" as="geometry" />
        </mxCell>
        <mxCell id="FR89OB6KfwYHRrKmToQn-15" value="Titel of the Motion" style="rounded=0;whiteSpace=wrap;html=1;fillColor=#e3c800;fontColor=#000000;strokeColor=#B09500;" parent="FR89OB6KfwYHRrKmToQn-14" vertex="1">
          <mxGeometry x="40" width="280" height="60" as="geometry" />
        </mxCell>
        <mxCell id="FR89OB6KfwYHRrKmToQn-16" value="Accepted/Rejected&lt;div&gt;&lt;br&gt;&lt;/div&gt;&lt;div&gt;Date vote&lt;/div&gt;" style="rounded=0;whiteSpace=wrap;html=1;fillColor=#76608a;fontColor=#ffffff;strokeColor=#432D57;" parent="FR89OB6KfwYHRrKmToQn-14" vertex="1">
          <mxGeometry x="320" width="140" height="60" as="geometry" />
        </mxCell>
        <mxCell id="FR89OB6KfwYHRrKmToQn-17" value="&amp;gt;" style="rounded=0;whiteSpace=wrap;html=1;fillColor=#d0cee2;strokeColor=#56517e;" parent="FR89OB6KfwYHRrKmToQn-14" vertex="1">
          <mxGeometry width="40" height="60" as="geometry" />
        </mxCell>
        <mxCell id="FR89OB6KfwYHRrKmToQn-18" value="Voting results per party" style="rounded=0;whiteSpace=wrap;html=1;verticalAlign=top;" parent="1" vertex="1">
          <mxGeometry x="1750" y="525" width="460" height="130" as="geometry" />
        </mxCell>
        <mxCell id="FR89OB6KfwYHRrKmToQn-19" value="JA" style="rounded=0;whiteSpace=wrap;html=1;verticalAlign=top;fillColor=#b0e3e6;strokeColor=#0e8088;" parent="1" vertex="1">
          <mxGeometry x="1770" y="554" width="120" height="92" as="geometry" />
        </mxCell>
        <mxCell id="FR89OB6KfwYHRrKmToQn-20" value="NEE" style="rounded=0;whiteSpace=wrap;html=1;verticalAlign=top;fillColor=#cdeb8b;strokeColor=#36393d;" parent="1" vertex="1">
          <mxGeometry x="1910" y="554" width="120" height="90" as="geometry" />
        </mxCell>
        <mxCell id="FR89OB6KfwYHRrKmToQn-21" value="Abstention" style="rounded=0;whiteSpace=wrap;html=1;verticalAlign=top;fillColor=#e1d5e7;strokeColor=#9673a6;" parent="1" vertex="1">
          <mxGeometry x="2050" y="555" width="120" height="90" as="geometry" />
        </mxCell>
        <mxCell id="FR89OB6KfwYHRrKmToQn-23" value="DOMAIN MODEL" style="rounded=0;whiteSpace=wrap;html=1;verticalAlign=top;" parent="1" vertex="1">
          <mxGeometry x="854" y="10" width="800" height="1950" as="geometry" />
        </mxCell>
        <mxCell id="FR89OB6KfwYHRrKmToQn-24" value="Motion" style="swimlane;fontStyle=0;childLayout=stackLayout;horizontal=1;startSize=26;fillColor=#ffe6cc;horizontalStack=0;resizeParent=1;resizeParentMax=0;resizeLast=0;collapsible=1;marginBottom=0;whiteSpace=wrap;html=1;movable=1;resizable=1;rotatable=1;deletable=1;editable=1;locked=0;connectable=1;strokeColor=#d79b00;" parent="1" vertex="1">
          <mxGeometry x="1140" y="60" width="205" height="316" as="geometry">
            <mxRectangle x="170" y="90" width="80" height="30" as="alternateBounds" />
          </mxGeometry>
        </mxCell>
        <mxCell id="FR89OB6KfwYHRrKmToQn-25" value="+ id: string" style="text;strokeColor=none;fillColor=none;align=left;verticalAlign=top;spacingLeft=4;spacingRight=4;overflow=hidden;rotatable=0;points=[[0,0.5],[1,0.5]];portConstraint=eastwest;whiteSpace=wrap;html=1;" parent="FR89OB6KfwYHRrKmToQn-24" vertex="1">
          <mxGeometry y="26" width="205" height="26" as="geometry" />
        </mxCell>
        <mxCell id="FR89OB6KfwYHRrKmToQn-34" value="+ plenaryId: string" style="text;strokeColor=none;fillColor=none;align=left;verticalAlign=top;spacingLeft=4;spacingRight=4;overflow=hidden;rotatable=0;points=[[0,0.5],[1,0.5]];portConstraint=eastwest;whiteSpace=wrap;html=1;" parent="FR89OB6KfwYHRrKmToQn-24" vertex="1">
          <mxGeometry y="52" width="205" height="26" as="geometry" />
        </mxCell>
        <mxCell id="FR89OB6KfwYHRrKmToQn-35" value="+ votingDate: string" style="text;strokeColor=none;fillColor=none;align=left;verticalAlign=top;spacingLeft=4;spacingRight=4;overflow=hidden;rotatable=0;points=[[0,0.5],[1,0.5]];portConstraint=eastwest;whiteSpace=wrap;html=1;" parent="FR89OB6KfwYHRrKmToQn-24" vertex="1">
          <mxGeometry y="78" width="205" height="26" as="geometry" />
        </mxCell>
        <mxCell id="FR89OB6KfwYHRrKmToQn-26" value="+ sequenceNumber: int" style="text;strokeColor=none;fillColor=none;align=left;verticalAlign=top;spacingLeft=4;spacingRight=4;overflow=hidden;rotatable=0;points=[[0,0.5],[1,0.5]];portConstraint=eastwest;whiteSpace=wrap;html=1;" parent="FR89OB6KfwYHRrKmToQn-24" vertex="1">
          <mxGeometry y="104" width="205" height="26" as="geometry" />
        </mxCell>
        <mxCell id="FR89OB6KfwYHRrKmToQn-28" value="+ titleNL: string" style="text;strokeColor=none;fillColor=none;align=left;verticalAlign=top;spacingLeft=4;spacingRight=4;overflow=hidden;rotatable=0;points=[[0,0.5],[1,0.5]];portConstraint=eastwest;whiteSpace=wrap;html=1;" parent="FR89OB6KfwYHRrKmToQn-24" vertex="1">
          <mxGeometry y="130" width="205" height="32" as="geometry" />
        </mxCell>
        <mxCell id="FR89OB6KfwYHRrKmToQn-27" value="+ titleFR: string" style="text;strokeColor=none;fillColor=none;align=left;verticalAlign=top;spacingLeft=4;spacingRight=4;overflow=hidden;rotatable=0;points=[[0,0.5],[1,0.5]];portConstraint=eastwest;whiteSpace=wrap;html=1;" parent="FR89OB6KfwYHRrKmToQn-24" vertex="1">
          <mxGeometry y="162" width="205" height="32" as="geometry" />
        </mxCell>
        <mxCell id="FR89OB6KfwYHRrKmToQn-29" value="+ descriptionNL: string" style="text;strokeColor=none;fillColor=none;align=left;verticalAlign=top;spacingLeft=4;spacingRight=4;overflow=hidden;rotatable=0;points=[[0,0.5],[1,0.5]];portConstraint=eastwest;whiteSpace=wrap;html=1;" parent="FR89OB6KfwYHRrKmToQn-24" vertex="1">
          <mxGeometry y="194" width="205" height="32" as="geometry" />
        </mxCell>
        <mxCell id="FR89OB6KfwYHRrKmToQn-36" value="+ descriptionFR: string" style="text;strokeColor=none;fillColor=none;align=left;verticalAlign=top;spacingLeft=4;spacingRight=4;overflow=hidden;rotatable=0;points=[[0,0.5],[1,0.5]];portConstraint=eastwest;whiteSpace=wrap;html=1;" parent="FR89OB6KfwYHRrKmToQn-24" vertex="1">
          <mxGeometry y="226" width="205" height="32" as="geometry" />
        </mxCell>
        <mxCell id="FR89OB6KfwYHRrKmToQn-30" value="+ documentsReference: string" style="text;strokeColor=none;fillColor=none;align=left;verticalAlign=top;spacingLeft=4;spacingRight=4;overflow=hidden;rotatable=0;points=[[0,0.5],[1,0.5]];portConstraint=eastwest;whiteSpace=wrap;html=1;" parent="FR89OB6KfwYHRrKmToQn-24" vertex="1">
          <mxGeometry y="258" width="205" height="26" as="geometry" />
        </mxCell>
        <mxCell id="FR89OB6KfwYHRrKmToQn-31" value="+ voteCount: VoteCount" style="text;strokeColor=none;fillColor=none;align=left;verticalAlign=top;spacingLeft=4;spacingRight=4;overflow=hidden;rotatable=0;points=[[0,0.5],[1,0.5]];portConstraint=eastwest;whiteSpace=wrap;html=1;" parent="FR89OB6KfwYHRrKmToQn-24" vertex="1">
          <mxGeometry y="284" width="205" height="32" as="geometry" />
        </mxCell>
        <mxCell id="FR89OB6KfwYHRrKmToQn-37" value="PartyVotes" style="swimlane;fontStyle=0;childLayout=stackLayout;horizontal=1;startSize=26;fillColor=#ffe6cc;horizontalStack=0;resizeParent=1;resizeParentMax=0;resizeLast=0;collapsible=1;marginBottom=0;whiteSpace=wrap;html=1;movable=1;resizable=1;rotatable=1;deletable=1;editable=1;locked=0;connectable=1;strokeColor=#d79b00;" parent="1" vertex="1">
          <mxGeometry x="1150" y="811" width="140" height="84" as="geometry">
            <mxRectangle x="170" y="90" width="80" height="30" as="alternateBounds" />
          </mxGeometry>
        </mxCell>
        <mxCell id="FR89OB6KfwYHRrKmToQn-39" value="+ partyVote: string" style="text;strokeColor=none;fillColor=none;align=left;verticalAlign=top;spacingLeft=4;spacingRight=4;overflow=hidden;rotatable=0;points=[[0,0.5],[1,0.5]];portConstraint=eastwest;whiteSpace=wrap;html=1;" parent="FR89OB6KfwYHRrKmToQn-37" vertex="1">
          <mxGeometry y="26" width="140" height="32" as="geometry" />
        </mxCell>
        <mxCell id="FR89OB6KfwYHRrKmToQn-40" value="+ nrOfVotes: number" style="text;strokeColor=none;fillColor=none;align=left;verticalAlign=top;spacingLeft=4;spacingRight=4;overflow=hidden;rotatable=0;points=[[0,0.5],[1,0.5]];portConstraint=eastwest;whiteSpace=wrap;html=1;" parent="FR89OB6KfwYHRrKmToQn-37" vertex="1">
          <mxGeometry y="58" width="140" height="26" as="geometry" />
        </mxCell>
        <mxCell id="FR89OB6KfwYHRrKmToQn-41" value="VoteType" style="swimlane;fontStyle=0;childLayout=stackLayout;horizontal=1;startSize=26;fillColor=#ffe6cc;horizontalStack=0;resizeParent=1;resizeParentMax=0;resizeLast=0;collapsible=1;marginBottom=0;whiteSpace=wrap;html=1;movable=1;resizable=1;rotatable=1;deletable=1;editable=1;locked=0;connectable=1;strokeColor=#d79b00;" parent="1" vertex="1">
          <mxGeometry x="980" y="811" width="140" height="110" as="geometry">
            <mxRectangle x="170" y="90" width="80" height="30" as="alternateBounds" />
          </mxGeometry>
        </mxCell>
        <mxCell id="FR89OB6KfwYHRrKmToQn-42" value="+ YES" style="text;strokeColor=none;fillColor=none;align=left;verticalAlign=top;spacingLeft=4;spacingRight=4;overflow=hidden;rotatable=0;points=[[0,0.5],[1,0.5]];portConstraint=eastwest;whiteSpace=wrap;html=1;" parent="FR89OB6KfwYHRrKmToQn-41" vertex="1">
          <mxGeometry y="26" width="140" height="26" as="geometry" />
        </mxCell>
        <mxCell id="FR89OB6KfwYHRrKmToQn-43" value="+ NO" style="text;strokeColor=none;fillColor=none;align=left;verticalAlign=top;spacingLeft=4;spacingRight=4;overflow=hidden;rotatable=0;points=[[0,0.5],[1,0.5]];portConstraint=eastwest;whiteSpace=wrap;html=1;" parent="FR89OB6KfwYHRrKmToQn-41" vertex="1">
          <mxGeometry y="52" width="140" height="32" as="geometry" />
        </mxCell>
        <mxCell id="FR89OB6KfwYHRrKmToQn-44" value="+ ABSTENTION&lt;span style=&quot;color: rgba(0, 0, 0, 0); font-family: monospace; font-size: 0px; text-wrap: nowrap;&quot;&gt;%3CmxGraphModel%3E%3Croot%3E%3CmxCell%20id%3D%220%22%2F%3E%3CmxCell%20id%3D%221%22%20parent%3D%220%22%2F%3E%3CmxCell%20id%3D%222%22%20value%3D%22Vote%22%20style%3D%22swimlane%3BfontStyle%3D0%3BchildLayout%3DstackLayout%3Bhorizontal%3D1%3BstartSize%3D26%3BfillColor%3D%23d5e8d4%3BhorizontalStack%3D0%3BresizeParent%3D1%3BresizeParentMax%3D0%3BresizeLast%3D0%3Bcollapsible%3D1%3BmarginBottom%3D0%3BwhiteSpace%3Dwrap%3Bhtml%3D1%3Bmovable%3D1%3Bresizable%3D1%3Brotatable%3D1%3Bdeletable%3D1%3Beditable%3D1%3Blocked%3D0%3Bconnectable%3D1%3BstrokeColor%3D%2382b366%3B%22%20vertex%3D%221%22%20parent%3D%221%22%3E%3CmxGeometry%20x%3D%22360%22%20y%3D%22600%22%20width%3D%22140%22%20height%3D%22136%22%20as%3D%22geometry%22%3E%3CmxRectangle%20x%3D%22170%22%20y%3D%2290%22%20width%3D%2280%22%20height%3D%2230%22%20as%3D%22alternateBounds%22%2F%3E%3C%2FmxGeometry%3E%3C%2FmxCell%3E%3CmxCell%20id%3D%223%22%20value%3D%22%2B%20motion_id%3A%20string%22%20style%3D%22text%3BstrokeColor%3Dnone%3BfillColor%3Dnone%3Balign%3Dleft%3BverticalAlign%3Dtop%3BspacingLeft%3D4%3BspacingRight%3D4%3Boverflow%3Dhidden%3Brotatable%3D0%3Bpoints%3D%5B%5B0%2C0.5%5D%2C%5B1%2C0.5%5D%5D%3BportConstraint%3Deastwest%3BwhiteSpace%3Dwrap%3Bhtml%3D1%3B%22%20vertex%3D%221%22%20parent%3D%222%22%3E%3CmxGeometry%20y%3D%2226%22%20width%3D%22140%22%20height%3D%2226%22%20as%3D%22geometry%22%2F%3E%3C%2FmxCell%3E%3CmxCell%20id%3D%224%22%20value%3D%22%2B%20vote_type%3A%20boolean%22%20style%3D%22text%3BstrokeColor%3Dnone%3BfillColor%3Dnone%3Balign%3Dleft%3BverticalAlign%3Dtop%3BspacingLeft%3D4%3BspacingRight%3D4%3Boverflow%3Dhidden%3Brotatable%3D0%3Bpoints%3D%5B%5B0%2C0.5%5D%2C%5B1%2C0.5%5D%5D%3BportConstraint%3Deastwest%3BwhiteSpace%3Dwrap%3Bhtml%3D1%3B%22%20vertex%3D%221%22%20parent%3D%222%22%3E%3CmxGeometry%20y%3D%2252%22%20width%3D%22140%22%20height%3D%2232%22%20as%3D%22geometry%22%2F%3E%3C%2FmxCell%3E%3CmxCell%20id%3D%225%22%20value%3D%22%2B%20fraction%3A%20string%22%20style%3D%22text%3BstrokeColor%3Dnone%3BfillColor%3Dnone%3Balign%3Dleft%3BverticalAlign%3Dtop%3BspacingLeft%3D4%3BspacingRight%3D4%3Boverflow%3Dhidden%3Brotatable%3D0%3Bpoints%3D%5B%5B0%2C0.5%5D%2C%5B1%2C0.5%5D%5D%3BportConstraint%3Deastwest%3BwhiteSpace%3Dwrap%3Bhtml%3D1%3B%22%20vertex%3D%221%22%20parent%3D%222%22%3E%3CmxGeometry%20y%3D%2284%22%20width%3D%22140%22%20height%3D%2226%22%20as%3D%22geometry%22%2F%3E%3C%2FmxCell%3E%3CmxCell%20id%3D%226%22%20value%3D%22%2B%20politician%3A%20Politician%22%20style%3D%22text%3BstrokeColor%3Dnone%3BfillColor%3Dnone%3Balign%3Dleft%3BverticalAlign%3Dtop%3BspacingLeft%3D4%3BspacingRight%3D4%3Boverflow%3Dhidden%3Brotatable%3D0%3Bpoints%3D%5B%5B0%2C0.5%5D%2C%5B1%2C0.5%5D%5D%3BportConstraint%3Deastwest%3BwhiteSpace%3Dwrap%3Bhtml%3D1%3B%22%20vertex%3D%221%22%20parent%3D%222%22%3E%3CmxGeometry%20y%3D%22110%22%20width%3D%22140%22%20height%3D%2226%22%20as%3D%22geometry%22%2F%3E%3C%2FmxCell%3E%3C%2Froot%3E%3C%2FmxGraphModel%3E&lt;/span&gt;" style="text;strokeColor=none;fillColor=none;align=left;verticalAlign=top;spacingLeft=4;spacingRight=4;overflow=hidden;rotatable=0;points=[[0,0.5],[1,0.5]];portConstraint=eastwest;whiteSpace=wrap;html=1;" parent="FR89OB6KfwYHRrKmToQn-41" vertex="1">
          <mxGeometry y="84" width="140" height="26" as="geometry" />
        </mxCell>
        <mxCell id="FR89OB6KfwYHRrKmToQn-45" value="Votes" style="swimlane;fontStyle=0;childLayout=stackLayout;horizontal=1;startSize=26;fillColor=#ffe6cc;horizontalStack=0;resizeParent=1;resizeParentMax=0;resizeLast=0;collapsible=1;marginBottom=0;whiteSpace=wrap;html=1;movable=1;resizable=1;rotatable=1;deletable=1;editable=1;locked=0;connectable=1;strokeColor=#d79b00;" parent="1" vertex="1">
          <mxGeometry x="1140" y="646" width="180" height="110" as="geometry">
            <mxRectangle x="170" y="90" width="80" height="30" as="alternateBounds" />
          </mxGeometry>
        </mxCell>
        <mxCell id="FR89OB6KfwYHRrKmToQn-47" value="+ voteType: VoteType" style="text;strokeColor=none;fillColor=none;align=left;verticalAlign=top;spacingLeft=4;spacingRight=4;overflow=hidden;rotatable=0;points=[[0,0.5],[1,0.5]];portConstraint=eastwest;whiteSpace=wrap;html=1;" parent="FR89OB6KfwYHRrKmToQn-45" vertex="1">
          <mxGeometry y="26" width="180" height="32" as="geometry" />
        </mxCell>
        <mxCell id="FR89OB6KfwYHRrKmToQn-48" value="+ nrOfVotes: number" style="text;strokeColor=none;fillColor=none;align=left;verticalAlign=top;spacingLeft=4;spacingRight=4;overflow=hidden;rotatable=0;points=[[0,0.5],[1,0.5]];portConstraint=eastwest;whiteSpace=wrap;html=1;" parent="FR89OB6KfwYHRrKmToQn-45" vertex="1">
          <mxGeometry y="58" width="180" height="26" as="geometry" />
        </mxCell>
        <mxCell id="FR89OB6KfwYHRrKmToQn-46" value="+ partyVotes: List&amp;lt;PartyVotes" style="text;strokeColor=none;fillColor=none;align=left;verticalAlign=top;spacingLeft=4;spacingRight=4;overflow=hidden;rotatable=0;points=[[0,0.5],[1,0.5]];portConstraint=eastwest;whiteSpace=wrap;html=1;" parent="FR89OB6KfwYHRrKmToQn-45" vertex="1">
          <mxGeometry y="84" width="180" height="26" as="geometry" />
        </mxCell>
        <mxCell id="FR89OB6KfwYHRrKmToQn-49" style="edgeStyle=orthogonalEdgeStyle;rounded=0;orthogonalLoop=1;jettySize=auto;html=1;entryX=0.444;entryY=1;entryDx=0;entryDy=0;entryPerimeter=0;endArrow=diamond;endFill=1;" parent="1" source="FR89OB6KfwYHRrKmToQn-37" target="FR89OB6KfwYHRrKmToQn-46" edge="1">
          <mxGeometry relative="1" as="geometry" />
        </mxCell>
        <mxCell id="FR89OB6KfwYHRrKmToQn-50" style="edgeStyle=orthogonalEdgeStyle;rounded=0;orthogonalLoop=1;jettySize=auto;html=1;entryX=0.5;entryY=0;entryDx=0;entryDy=0;" parent="1" source="FR89OB6KfwYHRrKmToQn-47" target="FR89OB6KfwYHRrKmToQn-41" edge="1">
          <mxGeometry relative="1" as="geometry" />
        </mxCell>
        <mxCell id="FR89OB6KfwYHRrKmToQn-57" style="edgeStyle=orthogonalEdgeStyle;rounded=0;orthogonalLoop=1;jettySize=auto;html=1;exitX=0;exitY=0.5;exitDx=0;exitDy=0;entryX=0.5;entryY=0;entryDx=0;entryDy=0;" parent="1" source="FR89OB6KfwYHRrKmToQn-53" target="FR89OB6KfwYHRrKmToQn-45" edge="1">
          <mxGeometry relative="1" as="geometry">
            <Array as="points">
              <mxPoint x="1153" y="475" />
              <mxPoint x="1153" y="600" />
              <mxPoint x="1230" y="600" />
            </Array>
          </mxGeometry>
        </mxCell>
        <mxCell id="FR89OB6KfwYHRrKmToQn-51" value="VoteCount" style="swimlane;fontStyle=0;childLayout=stackLayout;horizontal=1;startSize=26;fillColor=#ffe6cc;horizontalStack=0;resizeParent=1;resizeParentMax=0;resizeLast=0;collapsible=1;marginBottom=0;whiteSpace=wrap;html=1;movable=1;resizable=1;rotatable=1;deletable=1;editable=1;locked=0;connectable=1;strokeColor=#d79b00;" parent="1" vertex="1">
          <mxGeometry x="1172.5" y="407" width="140" height="148" as="geometry">
            <mxRectangle x="170" y="90" width="80" height="30" as="alternateBounds" />
          </mxGeometry>
        </mxCell>
        <mxCell id="FR89OB6KfwYHRrKmToQn-52" value="+ motionId: string" style="text;strokeColor=none;fillColor=none;align=left;verticalAlign=top;spacingLeft=4;spacingRight=4;overflow=hidden;rotatable=0;points=[[0,0.5],[1,0.5]];portConstraint=eastwest;whiteSpace=wrap;html=1;" parent="FR89OB6KfwYHRrKmToQn-51" vertex="1">
          <mxGeometry y="26" width="140" height="26" as="geometry" />
        </mxCell>
        <mxCell id="FR89OB6KfwYHRrKmToQn-53" value="+ yesVotes: Votes" style="text;strokeColor=none;fillColor=none;align=left;verticalAlign=top;spacingLeft=4;spacingRight=4;overflow=hidden;rotatable=0;points=[[0,0.5],[1,0.5]];portConstraint=eastwest;whiteSpace=wrap;html=1;" parent="FR89OB6KfwYHRrKmToQn-51" vertex="1">
          <mxGeometry y="52" width="140" height="32" as="geometry" />
        </mxCell>
        <mxCell id="FR89OB6KfwYHRrKmToQn-55" value="+ noVotes: Votes" style="text;strokeColor=none;fillColor=none;align=left;verticalAlign=top;spacingLeft=4;spacingRight=4;overflow=hidden;rotatable=0;points=[[0,0.5],[1,0.5]];portConstraint=eastwest;whiteSpace=wrap;html=1;" parent="FR89OB6KfwYHRrKmToQn-51" vertex="1">
          <mxGeometry y="84" width="140" height="32" as="geometry" />
        </mxCell>
        <mxCell id="FR89OB6KfwYHRrKmToQn-56" value="+ abstentions: Votes" style="text;strokeColor=none;fillColor=none;align=left;verticalAlign=top;spacingLeft=4;spacingRight=4;overflow=hidden;rotatable=0;points=[[0,0.5],[1,0.5]];portConstraint=eastwest;whiteSpace=wrap;html=1;" parent="FR89OB6KfwYHRrKmToQn-51" vertex="1">
          <mxGeometry y="116" width="140" height="32" as="geometry" />
        </mxCell>
        <mxCell id="FR89OB6KfwYHRrKmToQn-58" style="edgeStyle=orthogonalEdgeStyle;rounded=0;orthogonalLoop=1;jettySize=auto;html=1;" parent="1" edge="1">
          <mxGeometry relative="1" as="geometry">
            <mxPoint x="1140" y="385" as="sourcePoint" />
            <mxPoint x="1243" y="410" as="targetPoint" />
            <Array as="points">
              <mxPoint x="1140" y="390" />
              <mxPoint x="1243" y="390" />
            </Array>
          </mxGeometry>
        </mxCell>
        <mxCell id="FR89OB6KfwYHRrKmToQn-59" style="edgeStyle=orthogonalEdgeStyle;rounded=0;orthogonalLoop=1;jettySize=auto;html=1;entryX=0.5;entryY=0;entryDx=0;entryDy=0;" parent="1" source="FR89OB6KfwYHRrKmToQn-55" target="FR89OB6KfwYHRrKmToQn-45" edge="1">
          <mxGeometry relative="1" as="geometry">
            <Array as="points">
              <mxPoint x="1153" y="507" />
              <mxPoint x="1153" y="600" />
              <mxPoint x="1230" y="600" />
            </Array>
          </mxGeometry>
        </mxCell>
        <mxCell id="FR89OB6KfwYHRrKmToQn-61" style="edgeStyle=orthogonalEdgeStyle;rounded=0;orthogonalLoop=1;jettySize=auto;html=1;entryX=0.5;entryY=0;entryDx=0;entryDy=0;" parent="1" source="FR89OB6KfwYHRrKmToQn-56" target="FR89OB6KfwYHRrKmToQn-45" edge="1">
          <mxGeometry relative="1" as="geometry" />
        </mxCell>
        <mxCell id="-ENlqUrfkdgG28yoSUpv-80" value="Plenary" style="swimlane;fontStyle=0;childLayout=stackLayout;horizontal=1;startSize=26;fillColor=#ffe6cc;horizontalStack=0;resizeParent=1;resizeParentMax=0;resizeLast=0;collapsible=1;marginBottom=0;whiteSpace=wrap;html=1;movable=1;resizable=1;rotatable=1;deletable=1;editable=1;locked=0;connectable=1;strokeColor=#d79b00;" vertex="1" parent="1">
          <mxGeometry x="1100" y="1310" width="205" height="200" as="geometry">
            <mxRectangle x="170" y="90" width="80" height="30" as="alternateBounds" />
          </mxGeometry>
        </mxCell>
        <mxCell id="-ENlqUrfkdgG28yoSUpv-81" value="+ id: string" style="text;strokeColor=none;fillColor=none;align=left;verticalAlign=top;spacingLeft=4;spacingRight=4;overflow=hidden;rotatable=0;points=[[0,0.5],[1,0.5]];portConstraint=eastwest;whiteSpace=wrap;html=1;" vertex="1" parent="-ENlqUrfkdgG28yoSUpv-80">
          <mxGeometry y="26" width="205" height="26" as="geometry" />
        </mxCell>
        <mxCell id="-ENlqUrfkdgG28yoSUpv-82" value="+ legislature: string" style="text;strokeColor=none;fillColor=none;align=left;verticalAlign=top;spacingLeft=4;spacingRight=4;overflow=hidden;rotatable=0;points=[[0,0.5],[1,0.5]];portConstraint=eastwest;whiteSpace=wrap;html=1;" vertex="1" parent="-ENlqUrfkdgG28yoSUpv-80">
          <mxGeometry y="52" width="205" height="26" as="geometry" />
        </mxCell>
        <mxCell id="-ENlqUrfkdgG28yoSUpv-83" value="+ plenaryDate: string" style="text;strokeColor=none;fillColor=none;align=left;verticalAlign=top;spacingLeft=4;spacingRight=4;overflow=hidden;rotatable=0;points=[[0,0.5],[1,0.5]];portConstraint=eastwest;whiteSpace=wrap;html=1;" vertex="1" parent="-ENlqUrfkdgG28yoSUpv-80">
          <mxGeometry y="78" width="205" height="26" as="geometry" />
        </mxCell>
        <mxCell id="-ENlqUrfkdgG28yoSUpv-84" value="+ pdfReportUrl: string" style="text;strokeColor=none;fillColor=none;align=left;verticalAlign=top;spacingLeft=4;spacingRight=4;overflow=hidden;rotatable=0;points=[[0,0.5],[1,0.5]];portConstraint=eastwest;whiteSpace=wrap;html=1;" vertex="1" parent="-ENlqUrfkdgG28yoSUpv-80">
          <mxGeometry y="104" width="205" height="32" as="geometry" />
        </mxCell>
        <mxCell id="-ENlqUrfkdgG28yoSUpv-85" value="+ htmlReportUrl: string" style="text;strokeColor=none;fillColor=none;align=left;verticalAlign=top;spacingLeft=4;spacingRight=4;overflow=hidden;rotatable=0;points=[[0,0.5],[1,0.5]];portConstraint=eastwest;whiteSpace=wrap;html=1;" vertex="1" parent="-ENlqUrfkdgG28yoSUpv-80">
          <mxGeometry y="136" width="205" height="32" as="geometry" />
        </mxCell>
        <mxCell id="-ENlqUrfkdgG28yoSUpv-86" value="+ motions: List&amp;lt;MotionLink&amp;gt;" style="text;strokeColor=none;fillColor=none;align=left;verticalAlign=top;spacingLeft=4;spacingRight=4;overflow=hidden;rotatable=0;points=[[0,0.5],[1,0.5]];portConstraint=eastwest;whiteSpace=wrap;html=1;" vertex="1" parent="-ENlqUrfkdgG28yoSUpv-80">
          <mxGeometry y="168" width="205" height="32" as="geometry" />
        </mxCell>
        <mxCell id="-ENlqUrfkdgG28yoSUpv-87" value="MotionLink" style="swimlane;fontStyle=0;childLayout=stackLayout;horizontal=1;startSize=26;fillColor=#ffe6cc;horizontalStack=0;resizeParent=1;resizeParentMax=0;resizeLast=0;collapsible=1;marginBottom=0;whiteSpace=wrap;html=1;movable=1;resizable=1;rotatable=1;deletable=1;editable=1;locked=0;connectable=1;strokeColor=#d79b00;" vertex="1" parent="1">
          <mxGeometry x="1100" y="1560" width="205" height="116" as="geometry">
            <mxRectangle x="170" y="90" width="80" height="30" as="alternateBounds" />
          </mxGeometry>
        </mxCell>
        <mxCell id="-ENlqUrfkdgG28yoSUpv-88" value="+ motionId: string" style="text;strokeColor=none;fillColor=none;align=left;verticalAlign=top;spacingLeft=4;spacingRight=4;overflow=hidden;rotatable=0;points=[[0,0.5],[1,0.5]];portConstraint=eastwest;whiteSpace=wrap;html=1;" vertex="1" parent="-ENlqUrfkdgG28yoSUpv-87">
          <mxGeometry y="26" width="205" height="26" as="geometry" />
        </mxCell>
        <mxCell id="-ENlqUrfkdgG28yoSUpv-89" value="+ titleNL: string" style="text;strokeColor=none;fillColor=none;align=left;verticalAlign=top;spacingLeft=4;spacingRight=4;overflow=hidden;rotatable=0;points=[[0,0.5],[1,0.5]];portConstraint=eastwest;whiteSpace=wrap;html=1;" vertex="1" parent="-ENlqUrfkdgG28yoSUpv-87">
          <mxGeometry y="52" width="205" height="32" as="geometry" />
        </mxCell>
        <mxCell id="-ENlqUrfkdgG28yoSUpv-90" value="+ titleFR: string" style="text;strokeColor=none;fillColor=none;align=left;verticalAlign=top;spacingLeft=4;spacingRight=4;overflow=hidden;rotatable=0;points=[[0,0.5],[1,0.5]];portConstraint=eastwest;whiteSpace=wrap;html=1;" vertex="1" parent="-ENlqUrfkdgG28yoSUpv-87">
          <mxGeometry y="84" width="205" height="32" as="geometry" />
        </mxCell>
        <mxCell id="-ENlqUrfkdgG28yoSUpv-91" style="edgeStyle=orthogonalEdgeStyle;rounded=0;orthogonalLoop=1;jettySize=auto;html=1;startArrow=diamond;startFill=1;endArrow=none;endFill=0;" edge="1" parent="1" source="-ENlqUrfkdgG28yoSUpv-86" target="-ENlqUrfkdgG28yoSUpv-87">
          <mxGeometry relative="1" as="geometry" />
        </mxCell>
        <mxCell id="-ENlqUrfkdgG28yoSUpv-94" value="" style="rounded=0;whiteSpace=wrap;html=1;" vertex="1" parent="1">
          <mxGeometry x="1740" y="1190" width="520" height="430" as="geometry" />
        </mxCell>
        <mxCell id="-ENlqUrfkdgG28yoSUpv-95" value="&lt;font style=&quot;font-size: 16px;&quot;&gt;&lt;u&gt;PLENARIES&lt;/u&gt;&lt;/font&gt;" style="text;html=1;align=center;verticalAlign=middle;whiteSpace=wrap;rounded=0;" vertex="1" parent="1">
          <mxGeometry x="1950" y="1210" width="60" height="30" as="geometry" />
        </mxCell>
        <mxCell id="-ENlqUrfkdgG28yoSUpv-96" value="" style="group;fillColor=#e3c800;fontColor=#000000;strokeColor=#B09500;" vertex="1" connectable="0" parent="1">
          <mxGeometry x="1770" y="1250" width="460" height="60" as="geometry" />
        </mxCell>
        <mxCell id="-ENlqUrfkdgG28yoSUpv-97" value="Title of the Plenary" style="rounded=0;whiteSpace=wrap;html=1;fillColor=#e3c800;fontColor=#000000;strokeColor=#B09500;" vertex="1" parent="-ENlqUrfkdgG28yoSUpv-96">
          <mxGeometry x="40" width="280" height="60" as="geometry" />
        </mxCell>
        <mxCell id="-ENlqUrfkdgG28yoSUpv-98" value="&lt;div&gt;&lt;span style=&quot;background-color: initial;&quot;&gt;Date v/d plenary&lt;/span&gt;&lt;br&gt;&lt;/div&gt;" style="rounded=0;whiteSpace=wrap;html=1;fillColor=#76608a;fontColor=#ffffff;strokeColor=#432D57;" vertex="1" parent="-ENlqUrfkdgG28yoSUpv-96">
          <mxGeometry x="320" width="140" height="60" as="geometry" />
        </mxCell>
        <mxCell id="-ENlqUrfkdgG28yoSUpv-99" value="&amp;gt;" style="rounded=0;whiteSpace=wrap;html=1;fillColor=#d0cee2;strokeColor=#56517e;" vertex="1" parent="-ENlqUrfkdgG28yoSUpv-96">
          <mxGeometry width="40" height="60" as="geometry" />
        </mxCell>
        <mxCell id="-ENlqUrfkdgG28yoSUpv-100" value="" style="group;fillColor=#e3c800;fontColor=#000000;strokeColor=#B09500;" vertex="1" connectable="0" parent="1">
          <mxGeometry x="1770" y="1340" width="460" height="60" as="geometry" />
        </mxCell>
        <mxCell id="-ENlqUrfkdgG28yoSUpv-101" value="Titel of the Plenary" style="rounded=0;whiteSpace=wrap;html=1;fillColor=#e3c800;fontColor=#000000;strokeColor=#B09500;" vertex="1" parent="-ENlqUrfkdgG28yoSUpv-100">
          <mxGeometry x="40" width="280" height="60" as="geometry" />
        </mxCell>
        <mxCell id="-ENlqUrfkdgG28yoSUpv-102" value="&lt;div&gt;&lt;span style=&quot;background-color: initial;&quot;&gt;Date plenary&lt;/span&gt;&lt;br&gt;&lt;/div&gt;" style="rounded=0;whiteSpace=wrap;html=1;fillColor=#76608a;fontColor=#ffffff;strokeColor=#432D57;" vertex="1" parent="-ENlqUrfkdgG28yoSUpv-100">
          <mxGeometry x="320" width="140" height="60" as="geometry" />
        </mxCell>
        <mxCell id="-ENlqUrfkdgG28yoSUpv-103" value="V" style="rounded=0;whiteSpace=wrap;html=1;fillColor=#d0cee2;strokeColor=#56517e;" vertex="1" parent="-ENlqUrfkdgG28yoSUpv-100">
          <mxGeometry width="40" height="60" as="geometry" />
        </mxCell>
        <mxCell id="-ENlqUrfkdgG28yoSUpv-104" value="&lt;ul&gt;&lt;li&gt;Titel of the motion A&lt;/li&gt;&lt;li&gt;Titel of the motion B&lt;/li&gt;&lt;li&gt;Titel of the motion C&lt;/li&gt;&lt;li&gt;Titel of the motion D&lt;/li&gt;&lt;li&gt;Titel of the motion E&lt;/li&gt;&lt;/ul&gt;" style="rounded=0;html=1;align=left;verticalAlign=top;fillColor=#fff2cc;strokeColor=#d6b656;" vertex="1" parent="1">
          <mxGeometry x="1770" y="1400" width="460" height="110" as="geometry" />
        </mxCell>
        <mxCell id="-ENlqUrfkdgG28yoSUpv-105" value="" style="group;fillColor=#e3c800;fontColor=#000000;strokeColor=#B09500;" vertex="1" connectable="0" parent="1">
          <mxGeometry x="1770" y="1530" width="460" height="60" as="geometry" />
        </mxCell>
        <mxCell id="-ENlqUrfkdgG28yoSUpv-106" value="Titel of the Plenary" style="rounded=0;whiteSpace=wrap;html=1;fillColor=#e3c800;fontColor=#000000;strokeColor=#B09500;" vertex="1" parent="-ENlqUrfkdgG28yoSUpv-105">
          <mxGeometry x="40" width="280" height="60" as="geometry" />
        </mxCell>
        <mxCell id="-ENlqUrfkdgG28yoSUpv-107" value="&lt;div&gt;&lt;span style=&quot;background-color: initial;&quot;&gt;Date plenary&lt;/span&gt;&lt;br&gt;&lt;/div&gt;" style="rounded=0;whiteSpace=wrap;html=1;fillColor=#76608a;fontColor=#ffffff;strokeColor=#432D57;" vertex="1" parent="-ENlqUrfkdgG28yoSUpv-105">
          <mxGeometry x="320" width="140" height="60" as="geometry" />
        </mxCell>
        <mxCell id="-ENlqUrfkdgG28yoSUpv-108" value="&amp;gt;" style="rounded=0;whiteSpace=wrap;html=1;fillColor=#d0cee2;strokeColor=#56517e;" vertex="1" parent="-ENlqUrfkdgG28yoSUpv-105">
          <mxGeometry width="40" height="60" as="geometry" />
        </mxCell>
        <mxCell id="-ENlqUrfkdgG28yoSUpv-114" value="" style="shape=flexArrow;endArrow=classic;html=1;rounded=0;fillColor=#d5e8d4;strokeColor=#82b366;exitX=0.999;exitY=0.039;exitDx=0;exitDy=0;exitPerimeter=0;entryX=0;entryY=0.5;entryDx=0;entryDy=0;" edge="1" parent="1" source="J9bktaArhZ66ByUuH0eX-104" target="FR89OB6KfwYHRrKmToQn-27">
          <mxGeometry width="50" height="50" relative="1" as="geometry">
            <mxPoint x="950" y="250" as="sourcePoint" />
            <mxPoint x="1000" y="200" as="targetPoint" />
          </mxGeometry>
        </mxCell>
        <mxCell id="-ENlqUrfkdgG28yoSUpv-115" value="" style="shape=flexArrow;endArrow=classic;html=1;rounded=0;fillColor=#d5e8d4;strokeColor=#82b366;entryX=-0.039;entryY=0.049;entryDx=0;entryDy=0;entryPerimeter=0;" edge="1" parent="1" source="J9bktaArhZ66ByUuH0eX-126" target="FR89OB6KfwYHRrKmToQn-52">
          <mxGeometry width="50" height="50" relative="1" as="geometry">
            <mxPoint x="790" y="651" as="sourcePoint" />
            <mxPoint x="1150" y="248" as="targetPoint" />
          </mxGeometry>
        </mxCell>
        <mxCell id="-ENlqUrfkdgG28yoSUpv-116" value="" style="shape=flexArrow;endArrow=classic;html=1;rounded=0;fillColor=#d5e8d4;strokeColor=#82b366;entryX=0;entryY=0.5;entryDx=0;entryDy=0;exitX=1;exitY=0.5;exitDx=0;exitDy=0;" edge="1" parent="1" source="tHdkYAUki8lSc-bP6wRB-1" target="-ENlqUrfkdgG28yoSUpv-82">
          <mxGeometry width="50" height="50" relative="1" as="geometry">
            <mxPoint x="477" y="1058" as="sourcePoint" />
            <mxPoint x="1148" y="677" as="targetPoint" />
          </mxGeometry>
        </mxCell>
        <mxCell id="-ENlqUrfkdgG28yoSUpv-117" value="" style="shape=flexArrow;endArrow=classic;html=1;rounded=0;fillColor=#d5e8d4;strokeColor=#82b366;exitX=0.957;exitY=0.955;exitDx=0;exitDy=0;exitPerimeter=0;entryX=0.02;entryY=-0.018;entryDx=0;entryDy=0;entryPerimeter=0;" edge="1" parent="1" source="gQ0caooAG5JBceF9FNhk-24" target="-ENlqUrfkdgG28yoSUpv-89">
          <mxGeometry width="50" height="50" relative="1" as="geometry">
            <mxPoint x="790" y="651" as="sourcePoint" />
            <mxPoint x="1150" y="248" as="targetPoint" />
          </mxGeometry>
        </mxCell>
        <mxCell id="-ENlqUrfkdgG28yoSUpv-118" value="" style="shape=flexArrow;endArrow=classic;html=1;rounded=0;fillColor=#dae8fc;strokeColor=#6c8ebf;exitX=0.996;exitY=0.223;exitDx=0;exitDy=0;exitPerimeter=0;entryX=0;entryY=0.75;entryDx=0;entryDy=0;" edge="1" parent="1" source="FR89OB6KfwYHRrKmToQn-28" target="FR89OB6KfwYHRrKmToQn-11">
          <mxGeometry width="50" height="50" relative="1" as="geometry">
            <mxPoint x="1345" y="493" as="sourcePoint" />
            <mxPoint x="1705" y="90" as="targetPoint" />
          </mxGeometry>
        </mxCell>
        <mxCell id="-ENlqUrfkdgG28yoSUpv-119" value="" style="shape=flexArrow;endArrow=classic;html=1;rounded=0;fillColor=#dae8fc;strokeColor=#6c8ebf;exitX=1.01;exitY=-0.242;exitDx=0;exitDy=0;exitPerimeter=0;" edge="1" parent="1" source="-ENlqUrfkdgG28yoSUpv-82">
          <mxGeometry width="50" height="50" relative="1" as="geometry">
            <mxPoint x="1420" y="1210" as="sourcePoint" />
            <mxPoint x="1770" y="1380" as="targetPoint" />
          </mxGeometry>
        </mxCell>
        <mxCell id="-ENlqUrfkdgG28yoSUpv-120" value="" style="shape=flexArrow;endArrow=classic;html=1;rounded=0;fillColor=#dae8fc;strokeColor=#6c8ebf;exitX=1;exitY=0.5;exitDx=0;exitDy=0;" edge="1" parent="1" source="FR89OB6KfwYHRrKmToQn-55" target="FR89OB6KfwYHRrKmToQn-18">
          <mxGeometry width="50" height="50" relative="1" as="geometry">
            <mxPoint x="1354" y="207" as="sourcePoint" />
            <mxPoint x="1760" y="380" as="targetPoint" />
          </mxGeometry>
        </mxCell>
        <mxCell id="-ENlqUrfkdgG28yoSUpv-121" value="" style="rounded=0;whiteSpace=wrap;html=1;" vertex="1" parent="1">
          <mxGeometry x="2500" y="175" width="550" height="815" as="geometry" />
        </mxCell>
        <mxCell id="-ENlqUrfkdgG28yoSUpv-122" value="&lt;font style=&quot;font-size: 16px;&quot;&gt;&lt;u&gt;MOTIONS&lt;/u&gt;&lt;/font&gt;" style="text;html=1;align=center;verticalAlign=middle;whiteSpace=wrap;rounded=0;" vertex="1" parent="1">
          <mxGeometry x="2710" y="195" width="60" height="30" as="geometry" />
        </mxCell>
        <mxCell id="-ENlqUrfkdgG28yoSUpv-123" value="" style="group;fillColor=#e3c800;fontColor=#000000;strokeColor=#B09500;" vertex="1" connectable="0" parent="1">
          <mxGeometry x="2530" y="235" width="460" height="60" as="geometry" />
        </mxCell>
        <mxCell id="-ENlqUrfkdgG28yoSUpv-124" value="Titel of the MotionGroup" style="rounded=0;whiteSpace=wrap;html=1;fillColor=#f8cecc;strokeColor=#b85450;" vertex="1" parent="-ENlqUrfkdgG28yoSUpv-123">
          <mxGeometry x="40" width="280" height="60" as="geometry" />
        </mxCell>
        <mxCell id="-ENlqUrfkdgG28yoSUpv-125" value="&lt;div&gt;&lt;span style=&quot;background-color: initial;&quot;&gt;5 motions&lt;/span&gt;&lt;/div&gt;&lt;div&gt;&lt;span style=&quot;background-color: initial;&quot;&gt;Date vote&lt;/span&gt;&lt;br&gt;&lt;/div&gt;" style="rounded=0;whiteSpace=wrap;html=1;fillColor=#76608a;fontColor=#ffffff;strokeColor=#432D57;" vertex="1" parent="-ENlqUrfkdgG28yoSUpv-123">
          <mxGeometry x="320" width="140" height="60" as="geometry" />
        </mxCell>
        <mxCell id="-ENlqUrfkdgG28yoSUpv-126" value="&amp;gt;" style="rounded=0;whiteSpace=wrap;html=1;fillColor=#d0cee2;strokeColor=#56517e;" vertex="1" parent="-ENlqUrfkdgG28yoSUpv-123">
          <mxGeometry width="40" height="60" as="geometry" />
        </mxCell>
        <mxCell id="-ENlqUrfkdgG28yoSUpv-127" value="" style="group;fillColor=#f8cecc;strokeColor=#b85450;" vertex="1" connectable="0" parent="1">
          <mxGeometry x="2530" y="325" width="460" height="60" as="geometry" />
        </mxCell>
        <mxCell id="-ENlqUrfkdgG28yoSUpv-128" value="Titel of the MotionGroup" style="rounded=0;whiteSpace=wrap;html=1;fillColor=#f8cecc;strokeColor=#b85450;" vertex="1" parent="-ENlqUrfkdgG28yoSUpv-127">
          <mxGeometry x="40" width="280" height="60" as="geometry" />
        </mxCell>
        <mxCell id="-ENlqUrfkdgG28yoSUpv-129" value="3 motions&lt;div&gt;Date vote&lt;/div&gt;" style="rounded=0;whiteSpace=wrap;html=1;fillColor=#76608a;fontColor=#ffffff;strokeColor=#432D57;" vertex="1" parent="-ENlqUrfkdgG28yoSUpv-127">
          <mxGeometry x="320" width="140" height="60" as="geometry" />
        </mxCell>
        <mxCell id="-ENlqUrfkdgG28yoSUpv-130" value="V" style="rounded=0;whiteSpace=wrap;html=1;fillColor=#d0cee2;strokeColor=#56517e;" vertex="1" parent="-ENlqUrfkdgG28yoSUpv-127">
          <mxGeometry width="40" height="60" as="geometry" />
        </mxCell>
        <mxCell id="-ENlqUrfkdgG28yoSUpv-140" value="" style="group;fillColor=#e3c800;fontColor=#000000;strokeColor=#B09500;" vertex="1" connectable="0" parent="1">
          <mxGeometry x="2560" y="400" width="460" height="60" as="geometry" />
        </mxCell>
        <mxCell id="-ENlqUrfkdgG28yoSUpv-141" value="Titel of the Motion" style="rounded=0;whiteSpace=wrap;html=1;fillColor=#e3c800;fontColor=#000000;strokeColor=#B09500;" vertex="1" parent="-ENlqUrfkdgG28yoSUpv-140">
          <mxGeometry x="40" width="280" height="60" as="geometry" />
        </mxCell>
        <mxCell id="-ENlqUrfkdgG28yoSUpv-142" value="Accepted/Rejected&lt;div&gt;&lt;br&gt;&lt;/div&gt;&lt;div&gt;Date vote&lt;/div&gt;" style="rounded=0;whiteSpace=wrap;html=1;fillColor=#76608a;fontColor=#ffffff;strokeColor=#432D57;" vertex="1" parent="-ENlqUrfkdgG28yoSUpv-140">
          <mxGeometry x="320" width="140" height="60" as="geometry" />
        </mxCell>
        <mxCell id="-ENlqUrfkdgG28yoSUpv-143" value="&amp;gt;" style="rounded=0;whiteSpace=wrap;html=1;fillColor=#d0cee2;strokeColor=#56517e;" vertex="1" parent="-ENlqUrfkdgG28yoSUpv-140">
          <mxGeometry width="40" height="60" as="geometry" />
        </mxCell>
        <mxCell id="-ENlqUrfkdgG28yoSUpv-144" value="" style="group;fillColor=#e3c800;fontColor=#000000;strokeColor=#B09500;" vertex="1" connectable="0" parent="1">
          <mxGeometry x="2560" y="480" width="460" height="60" as="geometry" />
        </mxCell>
        <mxCell id="-ENlqUrfkdgG28yoSUpv-145" value="Titel of the Motion" style="rounded=0;whiteSpace=wrap;html=1;fillColor=#e3c800;fontColor=#000000;strokeColor=#B09500;" vertex="1" parent="-ENlqUrfkdgG28yoSUpv-144">
          <mxGeometry x="40" width="280" height="60" as="geometry" />
        </mxCell>
        <mxCell id="-ENlqUrfkdgG28yoSUpv-146" value="Accepted/Rejected&lt;div&gt;&lt;br&gt;&lt;/div&gt;&lt;div&gt;Date vote&lt;/div&gt;" style="rounded=0;whiteSpace=wrap;html=1;fillColor=#76608a;fontColor=#ffffff;strokeColor=#432D57;" vertex="1" parent="-ENlqUrfkdgG28yoSUpv-144">
          <mxGeometry x="320" width="140" height="60" as="geometry" />
        </mxCell>
        <mxCell id="-ENlqUrfkdgG28yoSUpv-147" value="V" style="rounded=0;whiteSpace=wrap;html=1;fillColor=#d0cee2;strokeColor=#56517e;" vertex="1" parent="-ENlqUrfkdgG28yoSUpv-144">
          <mxGeometry width="40" height="60" as="geometry" />
        </mxCell>
        <mxCell id="-ENlqUrfkdgG28yoSUpv-148" value="Description of the Motion&amp;nbsp;&lt;span style=&quot;text-align: center;&quot;&gt;Blablablablablablablabla&lt;/span&gt;&lt;span style=&quot;text-align: center;&quot;&gt;Blablablablablablablabla&amp;nbsp;&lt;/span&gt;&lt;div&gt;&lt;span style=&quot;text-align: center;&quot;&gt;Blablablablablablablabla&lt;/span&gt;&lt;span style=&quot;text-align: center;&quot;&gt;Blablablablablablablabla&lt;/span&gt;&lt;span style=&quot;text-align: center;&quot;&gt;Blablablablablablablabla&lt;/span&gt;&lt;span style=&quot;text-align: center;&quot;&gt;Blablabla&amp;nbsp;&lt;/span&gt;&lt;/div&gt;&lt;div&gt;&lt;span style=&quot;text-align: center;&quot;&gt;blablablablabla&lt;/span&gt;&lt;span style=&quot;text-align: center;&quot;&gt;Blablablablablablablabla&lt;/span&gt;&lt;span style=&quot;text-align: center;&quot;&gt;Blablablablablablablabla&lt;/span&gt;&lt;span style=&quot;text-align: center;&quot;&gt;Blablablablablabla&lt;/span&gt;&lt;/div&gt;&lt;div&gt;&lt;span style=&quot;text-align: center;&quot;&gt;blabla&lt;/span&gt;&lt;span style=&quot;text-align: center;&quot;&gt;Blablablablablablablabla&lt;/span&gt;&lt;span style=&quot;text-align: center;&quot;&gt;Blablablablablablablabla&lt;/span&gt;&lt;span style=&quot;text-align: center;&quot;&gt;Blablablablablablablabla&lt;/span&gt;&lt;/div&gt;&lt;div&gt;&lt;span style=&quot;text-align: center;&quot;&gt;Blablablablablablablabla&lt;/span&gt;&lt;span style=&quot;text-align: center;&quot;&gt;Blablablablablablablabla&lt;/span&gt;&lt;span style=&quot;text-align: center;&quot;&gt;Blablablablablablablabla&lt;/span&gt;&lt;/div&gt;&lt;div&gt;&lt;span style=&quot;text-align: center;&quot;&gt;Blablablablablablablabla&lt;/span&gt;&lt;span style=&quot;text-align: center;&quot;&gt;Blablablablablablablabla&lt;/span&gt;&lt;span style=&quot;background-color: initial;&quot;&gt;Blablablablablablablabla&lt;/span&gt;&lt;div&gt;Blablablablablablablabla&lt;span style=&quot;background-color: initial;&quot;&gt;Blablablablablablablabla&lt;/span&gt;&lt;span style=&quot;background-color: initial;&quot;&gt;Blablablablablablablabla&lt;/span&gt;&lt;/div&gt;&lt;div&gt;&lt;span style=&quot;background-color: initial;&quot;&gt;Blablablablablablablabla&lt;/span&gt;&lt;span style=&quot;background-color: initial;&quot;&gt;Blablablablablablablabla&lt;/span&gt;&lt;/div&gt;&lt;/div&gt;" style="rounded=0;html=1;align=left;verticalAlign=top;" vertex="1" parent="1">
          <mxGeometry x="2560" y="540" width="460" height="140" as="geometry" />
        </mxCell>
        <mxCell id="-ENlqUrfkdgG28yoSUpv-149" value="" style="group;fillColor=#e3c800;fontColor=#000000;strokeColor=#B09500;" vertex="1" connectable="0" parent="1">
          <mxGeometry x="2560" y="830" width="460" height="60" as="geometry" />
        </mxCell>
        <mxCell id="-ENlqUrfkdgG28yoSUpv-150" value="Titel of the Motion" style="rounded=0;whiteSpace=wrap;html=1;fillColor=#e3c800;fontColor=#000000;strokeColor=#B09500;" vertex="1" parent="-ENlqUrfkdgG28yoSUpv-149">
          <mxGeometry x="40" width="280" height="60" as="geometry" />
        </mxCell>
        <mxCell id="-ENlqUrfkdgG28yoSUpv-151" value="Accepted/Rejected&lt;div&gt;&lt;br&gt;&lt;/div&gt;&lt;div&gt;Date vote&lt;/div&gt;" style="rounded=0;whiteSpace=wrap;html=1;fillColor=#76608a;fontColor=#ffffff;strokeColor=#432D57;" vertex="1" parent="-ENlqUrfkdgG28yoSUpv-149">
          <mxGeometry x="320" width="140" height="60" as="geometry" />
        </mxCell>
        <mxCell id="-ENlqUrfkdgG28yoSUpv-152" value="&amp;gt;" style="rounded=0;whiteSpace=wrap;html=1;fillColor=#d0cee2;strokeColor=#56517e;" vertex="1" parent="-ENlqUrfkdgG28yoSUpv-149">
          <mxGeometry width="40" height="60" as="geometry" />
        </mxCell>
        <mxCell id="-ENlqUrfkdgG28yoSUpv-153" value="Voting results per party" style="rounded=0;whiteSpace=wrap;html=1;verticalAlign=top;" vertex="1" parent="1">
          <mxGeometry x="2560" y="680" width="460" height="130" as="geometry" />
        </mxCell>
        <mxCell id="-ENlqUrfkdgG28yoSUpv-154" value="JA" style="rounded=0;whiteSpace=wrap;html=1;verticalAlign=top;fillColor=#b0e3e6;strokeColor=#0e8088;" vertex="1" parent="1">
          <mxGeometry x="2580" y="709" width="120" height="92" as="geometry" />
        </mxCell>
        <mxCell id="-ENlqUrfkdgG28yoSUpv-155" value="NEE" style="rounded=0;whiteSpace=wrap;html=1;verticalAlign=top;fillColor=#cdeb8b;strokeColor=#36393d;" vertex="1" parent="1">
          <mxGeometry x="2720" y="709" width="120" height="90" as="geometry" />
        </mxCell>
        <mxCell id="-ENlqUrfkdgG28yoSUpv-156" value="Abstention" style="rounded=0;whiteSpace=wrap;html=1;verticalAlign=top;fillColor=#e1d5e7;strokeColor=#9673a6;" vertex="1" parent="1">
          <mxGeometry x="2860" y="710" width="120" height="90" as="geometry" />
        </mxCell>
        <mxCell id="-ENlqUrfkdgG28yoSUpv-157" value="" style="group;fillColor=#e3c800;fontColor=#000000;strokeColor=#B09500;" vertex="1" connectable="0" parent="1">
          <mxGeometry x="2540" y="900" width="460" height="60" as="geometry" />
        </mxCell>
        <mxCell id="-ENlqUrfkdgG28yoSUpv-158" value="Titel of the MotionGroup" style="rounded=0;whiteSpace=wrap;html=1;fillColor=#f8cecc;strokeColor=#b85450;" vertex="1" parent="-ENlqUrfkdgG28yoSUpv-157">
          <mxGeometry x="40" width="280" height="60" as="geometry" />
        </mxCell>
        <mxCell id="-ENlqUrfkdgG28yoSUpv-159" value="&lt;div&gt;&lt;span style=&quot;background-color: initial;&quot;&gt;Date vote&lt;/span&gt;&lt;br&gt;&lt;/div&gt;" style="rounded=0;whiteSpace=wrap;html=1;fillColor=#76608a;fontColor=#ffffff;strokeColor=#432D57;" vertex="1" parent="-ENlqUrfkdgG28yoSUpv-157">
          <mxGeometry x="320" width="140" height="60" as="geometry" />
        </mxCell>
        <mxCell id="-ENlqUrfkdgG28yoSUpv-160" value="&amp;gt;" style="rounded=0;whiteSpace=wrap;html=1;fillColor=#d0cee2;strokeColor=#56517e;" vertex="1" parent="-ENlqUrfkdgG28yoSUpv-157">
          <mxGeometry width="40" height="60" as="geometry" />
        </mxCell>
      </root>
    </mxGraphModel>
  </diagram>
</mxfile>
